<mxfile host="65bd71144e" pages="11">
    <diagram name="Use Cases" id="yl0Na_3rewBvZqBvKnc7">
        <mxGraphModel dx="0" dy="1634" grid="1" gridSize="10" guides="1" tooltips="1" connect="1" arrows="1" fold="1" page="1" pageScale="1" pageWidth="850" pageHeight="1100" math="0" shadow="0">
            <root>
                <mxCell id="0"/>
                <mxCell id="1" parent="0"/>
                <mxCell id="8pcg_IrPcl5AJl0ltrAM-1" value="User" style="shape=umlActor;verticalLabelPosition=bottom;verticalAlign=top;html=1;" parent="1" vertex="1">
                    <mxGeometry x="40" y="300" width="30" height="60" as="geometry"/>
                </mxCell>
                <mxCell id="8pcg_IrPcl5AJl0ltrAM-2" value="Booking a Flight" style="ellipse;whiteSpace=wrap;html=1;" parent="1" vertex="1">
                    <mxGeometry x="180" y="265" width="140" height="70" as="geometry"/>
                </mxCell>
                <mxCell id="8pcg_IrPcl5AJl0ltrAM-3" value="" style="endArrow=open;endFill=1;endSize=12;html=1;rounded=0;" parent="1" source="8pcg_IrPcl5AJl0ltrAM-1" target="8pcg_IrPcl5AJl0ltrAM-2" edge="1">
                    <mxGeometry width="160" relative="1" as="geometry">
                        <mxPoint x="130" y="270" as="sourcePoint"/>
                        <mxPoint x="360" y="380" as="targetPoint"/>
                    </mxGeometry>
                </mxCell>
                <mxCell id="8pcg_IrPcl5AJl0ltrAM-4" value="Cancel a Booking" style="ellipse;whiteSpace=wrap;html=1;" parent="1" vertex="1">
                    <mxGeometry x="180" y="370" width="140" height="70" as="geometry"/>
                </mxCell>
                <mxCell id="8pcg_IrPcl5AJl0ltrAM-5" value="" style="endArrow=open;endFill=1;endSize=12;html=1;rounded=0;entryX=0;entryY=0.5;entryDx=0;entryDy=0;" parent="1" source="8pcg_IrPcl5AJl0ltrAM-1" target="8pcg_IrPcl5AJl0ltrAM-4" edge="1">
                    <mxGeometry width="160" relative="1" as="geometry">
                        <mxPoint x="160" y="370" as="sourcePoint"/>
                        <mxPoint x="190" y="310" as="targetPoint"/>
                    </mxGeometry>
                </mxCell>
                <mxCell id="8pcg_IrPcl5AJl0ltrAM-6" value="Get Booking" style="ellipse;whiteSpace=wrap;html=1;fontStyle=2" parent="1" vertex="1">
                    <mxGeometry x="180" y="50" width="140" height="70" as="geometry"/>
                </mxCell>
                <mxCell id="8pcg_IrPcl5AJl0ltrAM-7" value="" style="endArrow=open;endFill=1;endSize=12;html=1;rounded=0;entryX=0;entryY=0.5;entryDx=0;entryDy=0;" parent="1" source="8pcg_IrPcl5AJl0ltrAM-1" target="8pcg_IrPcl5AJl0ltrAM-6" edge="1">
                    <mxGeometry width="160" relative="1" as="geometry">
                        <mxPoint x="110" y="310" as="sourcePoint"/>
                        <mxPoint x="190" y="310" as="targetPoint"/>
                    </mxGeometry>
                </mxCell>
                <mxCell id="8pcg_IrPcl5AJl0ltrAM-8" value="Earn Points" style="ellipse;whiteSpace=wrap;html=1;" parent="1" vertex="1">
                    <mxGeometry x="420" y="265" width="140" height="70" as="geometry"/>
                </mxCell>
                <mxCell id="8pcg_IrPcl5AJl0ltrAM-11" value="Extends" style="endArrow=block;endSize=16;endFill=0;html=1;rounded=0;exitX=0;exitY=0.5;exitDx=0;exitDy=0;entryX=1;entryY=0.5;entryDx=0;entryDy=0;" parent="1" source="8pcg_IrPcl5AJl0ltrAM-8" target="8pcg_IrPcl5AJl0ltrAM-2" edge="1">
                    <mxGeometry width="160" relative="1" as="geometry">
                        <mxPoint x="430" y="380" as="sourcePoint"/>
                        <mxPoint x="590" y="380" as="targetPoint"/>
                    </mxGeometry>
                </mxCell>
                <mxCell id="8pcg_IrPcl5AJl0ltrAM-12" value="Update Points" style="ellipse;whiteSpace=wrap;html=1;" parent="1" vertex="1">
                    <mxGeometry x="420" y="450" width="140" height="70" as="geometry"/>
                </mxCell>
                <mxCell id="8pcg_IrPcl5AJl0ltrAM-13" value="Extends" style="endArrow=block;endSize=16;endFill=0;html=1;rounded=0;exitX=0;exitY=0.5;exitDx=0;exitDy=0;entryX=1;entryY=0.5;entryDx=0;entryDy=0;" parent="1" source="8pcg_IrPcl5AJl0ltrAM-12" target="8pcg_IrPcl5AJl0ltrAM-4" edge="1">
                    <mxGeometry width="160" relative="1" as="geometry">
                        <mxPoint x="430" y="310" as="sourcePoint"/>
                        <mxPoint x="330" y="310" as="targetPoint"/>
                    </mxGeometry>
                </mxCell>
                <mxCell id="8pcg_IrPcl5AJl0ltrAM-14" value="Redeem Points" style="ellipse;whiteSpace=wrap;html=1;" parent="1" vertex="1">
                    <mxGeometry x="420" y="170" width="140" height="70" as="geometry"/>
                </mxCell>
                <mxCell id="8pcg_IrPcl5AJl0ltrAM-15" value="Extends" style="endArrow=block;endSize=16;endFill=0;html=1;rounded=0;exitX=0;exitY=0.5;exitDx=0;exitDy=0;" parent="1" source="8pcg_IrPcl5AJl0ltrAM-14" target="8pcg_IrPcl5AJl0ltrAM-2" edge="1">
                    <mxGeometry width="160" relative="1" as="geometry">
                        <mxPoint x="430" y="310" as="sourcePoint"/>
                        <mxPoint x="330" y="310" as="targetPoint"/>
                    </mxGeometry>
                </mxCell>
                <mxCell id="8pcg_IrPcl5AJl0ltrAM-16" value="Get Loyalty Profile" style="ellipse;whiteSpace=wrap;html=1;" parent="1" vertex="1">
                    <mxGeometry x="180" y="480" width="140" height="70" as="geometry"/>
                </mxCell>
                <mxCell id="8pcg_IrPcl5AJl0ltrAM-17" value="" style="endArrow=open;endFill=1;endSize=12;html=1;rounded=0;entryX=-0.007;entryY=0.457;entryDx=0;entryDy=0;entryPerimeter=0;" parent="1" source="8pcg_IrPcl5AJl0ltrAM-1" target="8pcg_IrPcl5AJl0ltrAM-16" edge="1">
                    <mxGeometry width="160" relative="1" as="geometry">
                        <mxPoint x="60" y="450" as="sourcePoint"/>
                        <mxPoint x="140" y="547" as="targetPoint"/>
                    </mxGeometry>
                </mxCell>
                <mxCell id="8pcg_IrPcl5AJl0ltrAM-18" value="Search Flights" style="ellipse;whiteSpace=wrap;html=1;" parent="1" vertex="1">
                    <mxGeometry x="180" y="160" width="140" height="70" as="geometry"/>
                </mxCell>
                <mxCell id="8pcg_IrPcl5AJl0ltrAM-19" value="" style="endArrow=open;endFill=1;endSize=12;html=1;rounded=0;entryX=-0.004;entryY=0.593;entryDx=0;entryDy=0;entryPerimeter=0;" parent="1" source="8pcg_IrPcl5AJl0ltrAM-1" target="8pcg_IrPcl5AJl0ltrAM-18" edge="1">
                    <mxGeometry width="160" relative="1" as="geometry">
                        <mxPoint x="50" y="295" as="sourcePoint"/>
                        <mxPoint x="150" y="160" as="targetPoint"/>
                    </mxGeometry>
                </mxCell>
                <mxCell id="8pcg_IrPcl5AJl0ltrAM-20" value="Update Seats Inventory" style="ellipse;whiteSpace=wrap;html=1;" parent="1" vertex="1">
                    <mxGeometry x="420" y="360" width="140" height="70" as="geometry"/>
                </mxCell>
                <mxCell id="8pcg_IrPcl5AJl0ltrAM-21" value="Extends" style="endArrow=block;endSize=16;endFill=0;html=1;rounded=0;exitX=0;exitY=0.5;exitDx=0;exitDy=0;entryX=0.996;entryY=0.443;entryDx=0;entryDy=0;entryPerimeter=0;" parent="1" source="8pcg_IrPcl5AJl0ltrAM-20" target="8pcg_IrPcl5AJl0ltrAM-4" edge="1">
                    <mxGeometry width="160" relative="1" as="geometry">
                        <mxPoint x="430" y="495" as="sourcePoint"/>
                        <mxPoint x="330" y="415" as="targetPoint"/>
                    </mxGeometry>
                </mxCell>
                <mxCell id="8pcg_IrPcl5AJl0ltrAM-22" value="Extends" style="endArrow=block;endSize=16;endFill=0;html=1;rounded=0;exitX=0;exitY=0.5;exitDx=0;exitDy=0;" parent="1" source="8pcg_IrPcl5AJl0ltrAM-20" target="8pcg_IrPcl5AJl0ltrAM-2" edge="1">
                    <mxGeometry width="160" relative="1" as="geometry">
                        <mxPoint x="430" y="405" as="sourcePoint"/>
                        <mxPoint x="329" y="411" as="targetPoint"/>
                    </mxGeometry>
                </mxCell>
                <mxCell id="Rpl6z9z-yh0kIIX76rre-1" value="Payment" style="ellipse;whiteSpace=wrap;html=1;" parent="1" vertex="1">
                    <mxGeometry x="420" y="70" width="140" height="70" as="geometry"/>
                </mxCell>
                <mxCell id="Rpl6z9z-yh0kIIX76rre-2" value="Extends" style="endArrow=block;endSize=16;endFill=0;html=1;rounded=0;exitX=0.012;exitY=0.367;exitDx=0;exitDy=0;exitPerimeter=0;" parent="1" source="Rpl6z9z-yh0kIIX76rre-1" target="8pcg_IrPcl5AJl0ltrAM-2" edge="1">
                    <mxGeometry width="160" relative="1" as="geometry">
                        <mxPoint x="430" y="215" as="sourcePoint"/>
                        <mxPoint x="307" y="284" as="targetPoint"/>
                    </mxGeometry>
                </mxCell>
                <mxCell id="Rpl6z9z-yh0kIIX76rre-3" value="Refund" style="ellipse;whiteSpace=wrap;html=1;" parent="1" vertex="1">
                    <mxGeometry x="425" y="540" width="140" height="70" as="geometry"/>
                </mxCell>
                <mxCell id="Rpl6z9z-yh0kIIX76rre-4" value="Extends" style="endArrow=block;endSize=16;endFill=0;html=1;rounded=0;exitX=0;exitY=0.5;exitDx=0;exitDy=0;" parent="1" source="Rpl6z9z-yh0kIIX76rre-3" target="8pcg_IrPcl5AJl0ltrAM-4" edge="1">
                    <mxGeometry width="160" relative="1" as="geometry">
                        <mxPoint x="430" y="495" as="sourcePoint"/>
                        <mxPoint x="330" y="415" as="targetPoint"/>
                    </mxGeometry>
                </mxCell>
                <mxCell id="PD1R4Pu1mvkUeLVLsU0j-1" value="Get Booking by ID" style="ellipse;whiteSpace=wrap;html=1;" parent="1" vertex="1">
                    <mxGeometry x="355" y="-50" width="140" height="70" as="geometry"/>
                </mxCell>
                <mxCell id="PD1R4Pu1mvkUeLVLsU0j-2" value="" style="endArrow=block;dashed=1;endFill=0;endSize=12;html=1;rounded=0;exitX=0;exitY=1;exitDx=0;exitDy=0;" parent="1" source="PD1R4Pu1mvkUeLVLsU0j-1" target="8pcg_IrPcl5AJl0ltrAM-6" edge="1">
                    <mxGeometry width="160" relative="1" as="geometry">
                        <mxPoint x="170" y="-70" as="sourcePoint"/>
                        <mxPoint x="330" y="-70" as="targetPoint"/>
                    </mxGeometry>
                </mxCell>
                <mxCell id="PD1R4Pu1mvkUeLVLsU0j-3" value="Get Bookings by Loyalty ID" style="ellipse;whiteSpace=wrap;html=1;" parent="1" vertex="1">
                    <mxGeometry x="215" y="-100" width="140" height="70" as="geometry"/>
                </mxCell>
                <mxCell id="PD1R4Pu1mvkUeLVLsU0j-4" value="" style="endArrow=block;dashed=1;endFill=0;endSize=12;html=1;rounded=0;exitX=0.5;exitY=1;exitDx=0;exitDy=0;" parent="1" source="PD1R4Pu1mvkUeLVLsU0j-3" target="8pcg_IrPcl5AJl0ltrAM-6" edge="1">
                    <mxGeometry width="160" relative="1" as="geometry">
                        <mxPoint x="365" y="-5" as="sourcePoint"/>
                        <mxPoint x="293" y="64" as="targetPoint"/>
                    </mxGeometry>
                </mxCell>
                <mxCell id="Xrg7wbYAsrGF5BKLh70O-1" value="Get Bookings by Name" style="ellipse;whiteSpace=wrap;html=1;" parent="1" vertex="1">
                    <mxGeometry x="70" y="-60" width="140" height="70" as="geometry"/>
                </mxCell>
                <mxCell id="Xrg7wbYAsrGF5BKLh70O-2" value="" style="endArrow=block;dashed=1;endFill=0;endSize=12;html=1;rounded=0;exitX=1;exitY=1;exitDx=0;exitDy=0;" parent="1" source="Xrg7wbYAsrGF5BKLh70O-1" target="8pcg_IrPcl5AJl0ltrAM-6" edge="1">
                    <mxGeometry width="160" relative="1" as="geometry">
                        <mxPoint x="295" y="-20" as="sourcePoint"/>
                        <mxPoint x="271" y="60" as="targetPoint"/>
                    </mxGeometry>
                </mxCell>
            </root>
        </mxGraphModel>
    </diagram>
    <diagram id="3A5J2MOyc95-_mx7o8_B" name="Services">
        <mxGraphModel dx="727" dy="534" grid="1" gridSize="10" guides="1" tooltips="1" connect="1" arrows="1" fold="1" page="1" pageScale="1" pageWidth="850" pageHeight="1100" math="0" shadow="0">
            <root>
                <mxCell id="0"/>
                <mxCell id="1" parent="0"/>
                <mxCell id="dWQ65OEhclL7CoMezb7M-1" value="«RESTful API»&lt;br&gt;&lt;b&gt;Booking Service&lt;/b&gt;" style="html=1;dropTarget=0;whiteSpace=wrap;" parent="1" vertex="1">
                    <mxGeometry x="100" y="280" width="180" height="90" as="geometry"/>
                </mxCell>
                <mxCell id="dWQ65OEhclL7CoMezb7M-2" value="" style="shape=module;jettyWidth=8;jettyHeight=4;" parent="dWQ65OEhclL7CoMezb7M-1" vertex="1">
                    <mxGeometry x="1" width="20" height="20" relative="1" as="geometry">
                        <mxPoint x="-27" y="7" as="offset"/>
                    </mxGeometry>
                </mxCell>
                <mxCell id="dWQ65OEhclL7CoMezb7M-3" value="«RESTful API»&lt;br&gt;&lt;b&gt;Flight Inventory&lt;/b&gt;&amp;nbsp;&lt;b&gt;Service&lt;/b&gt;" style="html=1;dropTarget=0;whiteSpace=wrap;" parent="1" vertex="1">
                    <mxGeometry x="440" y="100" width="180" height="90" as="geometry"/>
                </mxCell>
                <mxCell id="dWQ65OEhclL7CoMezb7M-4" value="" style="shape=module;jettyWidth=8;jettyHeight=4;" parent="dWQ65OEhclL7CoMezb7M-3" vertex="1">
                    <mxGeometry x="1" width="20" height="20" relative="1" as="geometry">
                        <mxPoint x="-27" y="7" as="offset"/>
                    </mxGeometry>
                </mxCell>
                <mxCell id="dWQ65OEhclL7CoMezb7M-5" value="«RESTful API»&lt;br&gt;&lt;b&gt;Loyalty Service&lt;/b&gt;" style="html=1;dropTarget=0;whiteSpace=wrap;" parent="1" vertex="1">
                    <mxGeometry x="440" y="280" width="180" height="90" as="geometry"/>
                </mxCell>
                <mxCell id="dWQ65OEhclL7CoMezb7M-6" value="" style="shape=module;jettyWidth=8;jettyHeight=4;" parent="dWQ65OEhclL7CoMezb7M-5" vertex="1">
                    <mxGeometry x="1" width="20" height="20" relative="1" as="geometry">
                        <mxPoint x="-27" y="7" as="offset"/>
                    </mxGeometry>
                </mxCell>
                <mxCell id="dWQ65OEhclL7CoMezb7M-8" value="reserve seats&lt;div&gt;cancel reservation&lt;/div&gt;&lt;div&gt;search flight&lt;/div&gt;" style="html=1;verticalAlign=bottom;endArrow=block;curved=0;rounded=0;exitX=1;exitY=0.5;exitDx=0;exitDy=0;entryX=0;entryY=0.5;entryDx=0;entryDy=0;" parent="1" source="dWQ65OEhclL7CoMezb7M-1" target="dWQ65OEhclL7CoMezb7M-3" edge="1">
                    <mxGeometry x="0.2034" y="-5" width="80" relative="1" as="geometry">
                        <mxPoint x="320" y="164.67000000000002" as="sourcePoint"/>
                        <mxPoint x="400" y="164.67000000000002" as="targetPoint"/>
                        <mxPoint as="offset"/>
                    </mxGeometry>
                </mxCell>
                <mxCell id="dWQ65OEhclL7CoMezb7M-9" value="&lt;div&gt;add points&lt;/div&gt;redeem points&lt;div&gt;get reward data&lt;/div&gt;" style="html=1;verticalAlign=bottom;endArrow=block;curved=0;rounded=0;exitX=1;exitY=0.5;exitDx=0;exitDy=0;entryX=0;entryY=0.5;entryDx=0;entryDy=0;" parent="1" source="dWQ65OEhclL7CoMezb7M-1" target="dWQ65OEhclL7CoMezb7M-5" edge="1">
                    <mxGeometry width="80" relative="1" as="geometry">
                        <mxPoint x="310" y="250" as="sourcePoint"/>
                        <mxPoint x="450" y="250" as="targetPoint"/>
                        <mxPoint as="offset"/>
                    </mxGeometry>
                </mxCell>
                <mxCell id="XUnXXso8o09xPk6OybGm-1" value="«RESTful API»&lt;br&gt;&lt;b&gt;Payment Service&lt;/b&gt;" style="html=1;dropTarget=0;whiteSpace=wrap;" parent="1" vertex="1">
                    <mxGeometry x="440" y="460" width="180" height="90" as="geometry"/>
                </mxCell>
                <mxCell id="XUnXXso8o09xPk6OybGm-2" value="" style="shape=module;jettyWidth=8;jettyHeight=4;" parent="XUnXXso8o09xPk6OybGm-1" vertex="1">
                    <mxGeometry x="1" width="20" height="20" relative="1" as="geometry">
                        <mxPoint x="-27" y="7" as="offset"/>
                    </mxGeometry>
                </mxCell>
                <mxCell id="XUnXXso8o09xPk6OybGm-3" value="&lt;div&gt;payment&lt;/div&gt;&lt;div&gt;refund&lt;/div&gt;" style="html=1;verticalAlign=bottom;endArrow=block;curved=0;rounded=0;exitX=1;exitY=0.5;exitDx=0;exitDy=0;entryX=0;entryY=0.5;entryDx=0;entryDy=0;" parent="1" source="dWQ65OEhclL7CoMezb7M-1" target="XUnXXso8o09xPk6OybGm-1" edge="1">
                    <mxGeometry width="80" relative="1" as="geometry">
                        <mxPoint x="290" y="440" as="sourcePoint"/>
                        <mxPoint x="450" y="440" as="targetPoint"/>
                        <mxPoint as="offset"/>
                    </mxGeometry>
                </mxCell>
            </root>
        </mxGraphModel>
    </diagram>
    <diagram id="q0xbA56_YMRCFn7LuKoo" name="Model">
        <mxGraphModel dx="1519" dy="1847" grid="1" gridSize="10" guides="1" tooltips="1" connect="1" arrows="1" fold="1" page="1" pageScale="1" pageWidth="850" pageHeight="1100" math="0" shadow="0">
            <root>
                <mxCell id="0"/>
                <mxCell id="1" parent="0"/>
                <mxCell id="w8Kh9hSiqvULjDB_DNdy-1" value="&lt;p style=&quot;margin:0px;margin-top:4px;text-align:center;&quot;&gt;&lt;b&gt;FlightInventory&lt;/b&gt;&lt;/p&gt;&lt;hr size=&quot;1&quot; style=&quot;border-style:solid;&quot;&gt;&lt;p style=&quot;margin:0px;margin-left:4px;&quot;&gt;+ id: Long&lt;/p&gt;&lt;p style=&quot;margin:0px;margin-left:4px;&quot;&gt;+ number: String&lt;/p&gt;&lt;p style=&quot;margin:0px;margin-left:4px;&quot;&gt;+ origin: String&lt;/p&gt;&lt;p style=&quot;margin:0px;margin-left:4px;&quot;&gt;+ destination: String&lt;/p&gt;&lt;p style=&quot;margin:0px;margin-left:4px;&quot;&gt;+ date: LocalDateTime&lt;/p&gt;&lt;p style=&quot;margin:0px;margin-left:4px;&quot;&gt;+ capacity: Integer&lt;/p&gt;&lt;p style=&quot;margin:0px;margin-left:4px;&quot;&gt;+ seatsBooked: Integer&lt;/p&gt;&lt;p style=&quot;margin:0px;margin-left:4px;&quot;&gt;+ unitPrice: BigDecimal&lt;/p&gt;" style="verticalAlign=top;align=left;overflow=fill;html=1;whiteSpace=wrap;" parent="1" vertex="1">
                    <mxGeometry x="600" y="279" width="160" height="161" as="geometry"/>
                </mxCell>
                <mxCell id="Dvfm-zlCscA2923OCoV_-1" value="&lt;p style=&quot;margin:0px;margin-top:4px;text-align:center;&quot;&gt;&lt;b&gt;Booking&lt;/b&gt;&lt;/p&gt;&lt;hr size=&quot;1&quot; style=&quot;border-style:solid;&quot;&gt;&lt;p style=&quot;margin:0px;margin-left:4px;&quot;&gt;+ id: Long&lt;/p&gt;&lt;p style=&quot;margin:0px;margin-left:4px;&quot;&gt;+ carrier: String&lt;/p&gt;&lt;p style=&quot;margin:0px;margin-left:4px;&quot;&gt;+ flightNumber: String&lt;/p&gt;&lt;p style=&quot;margin:0px;margin-left:4px;&quot;&gt;+ origin: String&lt;/p&gt;&lt;p style=&quot;margin:0px;margin-left:4px;&quot;&gt;+ destination: String&lt;/p&gt;&lt;p style=&quot;margin:0px;margin-left:4px;&quot;&gt;+ departureDate: LocalDateTime&lt;/p&gt;&lt;p style=&quot;margin:0px;margin-left:4px;&quot;&gt;+ seatsReservationID: String&lt;/p&gt;&lt;p style=&quot;margin:0px;margin-left:4px;&quot;&gt;&lt;span style=&quot;background-color: transparent; color: light-dark(rgb(0, 0, 0), rgb(255, 255, 255));&quot;&gt;+ firstName: String&lt;/span&gt;&lt;/p&gt;&lt;p style=&quot;margin:0px;margin-left:4px;&quot;&gt;&lt;span style=&quot;background-color: transparent; color: light-dark(rgb(0, 0, 0), rgb(255, 255, 255));&quot;&gt;+ lastName: String&lt;/span&gt;&lt;/p&gt;&lt;p style=&quot;margin:0px;margin-left:4px;&quot;&gt;&lt;span style=&quot;background-color: transparent; color: light-dark(rgb(0, 0, 0), rgb(255, 255, 255));&quot;&gt;+ loyaltyID: Long&lt;/span&gt;&lt;/p&gt;&lt;p style=&quot;margin:0px;margin-left:4px;&quot;&gt;+ pointsRedeemed: Integer&lt;/p&gt;&lt;p style=&quot;margin:0px;margin-left:4px;&quot;&gt;+ priceDeduction: BigDecimal&lt;/p&gt;&lt;p style=&quot;margin:0px;margin-left:4px;&quot;&gt;+ paymentID: String&lt;/p&gt;&lt;p style=&quot;margin:0px;margin-left:4px;&quot;&gt;+ memo: String[]&lt;/p&gt;" style="verticalAlign=top;align=left;overflow=fill;html=1;whiteSpace=wrap;" parent="1" vertex="1">
                    <mxGeometry x="328" y="0.01" width="180" height="240" as="geometry"/>
                </mxCell>
                <mxCell id="Dvfm-zlCscA2923OCoV_-6" value="&lt;p style=&quot;margin:0px;margin-top:4px;text-align:center;&quot;&gt;&lt;b&gt;Guest&lt;/b&gt;&lt;/p&gt;&lt;hr size=&quot;1&quot; style=&quot;border-style:solid;&quot;&gt;&lt;p style=&quot;margin:0px;margin-left:4px;&quot;&gt;+ firstName: String&lt;/p&gt;&lt;p style=&quot;margin:0px;margin-left:4px;&quot;&gt;+ lastName: String&lt;/p&gt;&lt;p style=&quot;margin:0px;margin-left:4px;&quot;&gt;&lt;span style=&quot;background-color: transparent; color: light-dark(rgb(0, 0, 0), rgb(255, 255, 255));&quot;&gt;+ dateOfBirth: LocalDate&lt;/span&gt;&lt;/p&gt;" style="verticalAlign=top;align=left;overflow=fill;html=1;whiteSpace=wrap;" parent="1" vertex="1">
                    <mxGeometry x="600" y="69.38" width="160" height="101.25" as="geometry"/>
                </mxCell>
                <mxCell id="Dvfm-zlCscA2923OCoV_-8" value="1" style="endArrow=open;html=1;endSize=12;startArrow=diamondThin;startSize=14;startFill=1;edgeStyle=orthogonalEdgeStyle;align=left;verticalAlign=bottom;rounded=0;exitX=1;exitY=0.5;exitDx=0;exitDy=0;entryX=0;entryY=0.5;entryDx=0;entryDy=0;" parent="1" source="Dvfm-zlCscA2923OCoV_-1" target="Dvfm-zlCscA2923OCoV_-6" edge="1">
                    <mxGeometry x="-1" y="3" relative="1" as="geometry">
                        <mxPoint x="500" y="90" as="sourcePoint"/>
                        <mxPoint x="660" y="90" as="targetPoint"/>
                    </mxGeometry>
                </mxCell>
                <mxCell id="sqEfxGZP3hvjw2KcRTu3-3" value="guests" style="edgeLabel;html=1;align=center;verticalAlign=middle;resizable=0;points=[];" parent="Dvfm-zlCscA2923OCoV_-8" vertex="1" connectable="0">
                    <mxGeometry x="0.025" y="1" relative="1" as="geometry">
                        <mxPoint as="offset"/>
                    </mxGeometry>
                </mxCell>
                <mxCell id="Dvfm-zlCscA2923OCoV_-10" value="&lt;p style=&quot;margin:0px;margin-top:4px;text-align:center;&quot;&gt;&lt;b&gt;Payment&lt;/b&gt;&lt;/p&gt;&lt;hr size=&quot;1&quot; style=&quot;border-style:solid;&quot;&gt;&lt;p style=&quot;margin:0px;margin-left:4px;&quot;&gt;+ id: Long&lt;/p&gt;&lt;p style=&quot;margin:0px;margin-left:4px;&quot;&gt;&lt;span style=&quot;background-color: transparent; color: light-dark(rgb(0, 0, 0), rgb(255, 255, 255));&quot;&gt;+ amountDue: BigDecimal&lt;/span&gt;&lt;/p&gt;&lt;p style=&quot;margin:0px;margin-left:4px;&quot;&gt;&lt;span style=&quot;background-color: transparent; color: light-dark(rgb(0, 0, 0), rgb(255, 255, 255));&quot;&gt;+ transactionTime: DateTime&lt;/span&gt;&lt;/p&gt;&lt;p style=&quot;margin: 0px 0px 0px 4px;&quot;&gt;+ creditCard: String&lt;/p&gt;&lt;p style=&quot;margin: 0px 0px 0px 4px;&quot;&gt;+ creditCardExpiry: String&lt;/p&gt;&lt;p style=&quot;margin: 0px 0px 0px 4px;&quot;&gt;+ refundTime: DateTime&lt;/p&gt;&lt;div&gt;&lt;br&gt;&lt;/div&gt;" style="verticalAlign=top;align=left;overflow=fill;html=1;whiteSpace=wrap;" parent="1" vertex="1">
                    <mxGeometry x="313" y="279" width="210" height="141" as="geometry"/>
                </mxCell>
                <mxCell id="M5vkDuECq_vdRbSeFoT7-5" value="&lt;p style=&quot;margin:0px;margin-top:4px;text-align:center;&quot;&gt;&lt;b&gt;BookingStatus&lt;/b&gt;&lt;/p&gt;&lt;hr size=&quot;1&quot; style=&quot;border-style:solid;&quot;&gt;&lt;p style=&quot;margin:0px;margin-left:4px;&quot;&gt;NEW&lt;/p&gt;&lt;p style=&quot;margin:0px;margin-left:4px;&quot;&gt;SEAT_RESERVED&lt;/p&gt;&lt;p style=&quot;margin:0px;margin-left:4px;&quot;&gt;POINTS_REDEEMED&lt;/p&gt;&lt;p style=&quot;margin:0px;margin-left:4px;&quot;&gt;BOOKED&lt;/p&gt;&lt;p style=&quot;margin:0px;margin-left:4px;&quot;&gt;CANCELLING&lt;/p&gt;&lt;p style=&quot;margin:0px;margin-left:4px;&quot;&gt;REFUNDED&lt;/p&gt;&lt;p style=&quot;margin:0px;margin-left:4px;&quot;&gt;POINTS_RETURNED&lt;/p&gt;&lt;p style=&quot;margin:0px;margin-left:4px;&quot;&gt;&lt;span style=&quot;background-color: transparent; color: light-dark(rgb(0, 0, 0), rgb(255, 255, 255));&quot;&gt;CANCELED&lt;/span&gt;&lt;/p&gt;" style="verticalAlign=top;align=left;overflow=fill;html=1;whiteSpace=wrap;" parent="1" vertex="1">
                    <mxGeometry x="80" y="26" width="160" height="170" as="geometry"/>
                </mxCell>
                <mxCell id="M5vkDuECq_vdRbSeFoT7-6" value="&lt;p style=&quot;margin:0px;margin-top:4px;text-align:center;&quot;&gt;&lt;b&gt;PaymentStatus (Enum)&lt;/b&gt;&lt;/p&gt;&lt;hr size=&quot;1&quot; style=&quot;border-style:solid;&quot;&gt;&lt;p style=&quot;margin:0px;margin-left:4px;&quot;&gt;PAID&lt;/p&gt;&lt;p style=&quot;margin:0px;margin-left:4px;&quot;&gt;REFUNDED&lt;/p&gt;" style="verticalAlign=top;align=left;overflow=fill;html=1;whiteSpace=wrap;" parent="1" vertex="1">
                    <mxGeometry x="338" y="470" width="160" height="130" as="geometry"/>
                </mxCell>
                <mxCell id="M5vkDuECq_vdRbSeFoT7-7" value="&lt;p style=&quot;margin:0px;margin-top:4px;text-align:center;&quot;&gt;&lt;b&gt;LoyaltyProfile&lt;/b&gt;&lt;/p&gt;&lt;hr size=&quot;1&quot; style=&quot;border-style:solid;&quot;&gt;&lt;p style=&quot;margin:0px;margin-left:4px;&quot;&gt;+ id: Long&lt;/p&gt;&lt;p style=&quot;margin:0px;margin-left:4px;&quot;&gt;+ firstName: String&lt;/p&gt;&lt;p style=&quot;margin:0px;margin-left:4px;&quot;&gt;+ lastName: String&lt;/p&gt;&lt;p style=&quot;margin:0px;margin-left:4px;&quot;&gt;+ gender: Gender&lt;/p&gt;&lt;p style=&quot;margin:0px;margin-left:4px;&quot;&gt;+ dateOfBirth: LocalDateTime&lt;/p&gt;&lt;p style=&quot;margin:0px;margin-left:4px;&quot;&gt;+ points: Long&lt;/p&gt;&lt;p style=&quot;margin:0px;margin-left:4px;&quot;&gt;+ lastPointsUpdateTime: DateTime&lt;/p&gt;" style="verticalAlign=top;align=left;overflow=fill;html=1;whiteSpace=wrap;" parent="1" vertex="1">
                    <mxGeometry x="57.5" y="284.5" width="205" height="145.5" as="geometry"/>
                </mxCell>
                <mxCell id="M5vkDuECq_vdRbSeFoT7-8" value="&lt;p style=&quot;margin:0px;margin-top:4px;text-align:center;&quot;&gt;&lt;b&gt;Gender&lt;/b&gt;&lt;/p&gt;&lt;hr size=&quot;1&quot; style=&quot;border-style:solid;&quot;&gt;&lt;p style=&quot;margin:0px;margin-left:4px;&quot;&gt;MALE&lt;/p&gt;&lt;p style=&quot;margin:0px;margin-left:4px;&quot;&gt;FEMALE&lt;/p&gt;" style="verticalAlign=top;align=left;overflow=fill;html=1;whiteSpace=wrap;" parent="1" vertex="1">
                    <mxGeometry x="600" y="-80" width="160" height="90" as="geometry"/>
                </mxCell>
                <mxCell id="Z2hAQXVggePsmz85tXss-5" value="&lt;p style=&quot;margin:0px;margin-top:4px;text-align:center;&quot;&gt;&lt;b&gt;Reservation&lt;/b&gt;&lt;/p&gt;&lt;hr size=&quot;1&quot; style=&quot;border-style:solid;&quot;&gt;&lt;p style=&quot;margin:0px;margin-left:4px;&quot;&gt;+ id: Long&lt;/p&gt;&lt;p style=&quot;margin:0px;margin-left:4px;&quot;&gt;+ flightInventoryId: Long&lt;/p&gt;&lt;p style=&quot;margin:0px;margin-left:4px;&quot;&gt;+ seatAmount: Integer&lt;/p&gt;&lt;p style=&quot;margin:0px;margin-left:4px;&quot;&gt;+ amountDue: BigDecimal&lt;/p&gt;" style="verticalAlign=top;align=left;overflow=fill;html=1;whiteSpace=wrap;" parent="1" vertex="1">
                    <mxGeometry x="800" y="279" width="160" height="130" as="geometry"/>
                </mxCell>
                <mxCell id="MKuPuN3oDujQW8Z0UvlZ-7" value="" style="endArrow=open;endFill=1;endSize=12;html=1;rounded=0;exitX=-0.006;exitY=0.463;exitDx=0;exitDy=0;exitPerimeter=0;" parent="1" source="Dvfm-zlCscA2923OCoV_-1" target="M5vkDuECq_vdRbSeFoT7-5" edge="1">
                    <mxGeometry width="160" relative="1" as="geometry">
                        <mxPoint x="120" y="270" as="sourcePoint"/>
                        <mxPoint x="280" y="270" as="targetPoint"/>
                    </mxGeometry>
                </mxCell>
                <mxCell id="MKuPuN3oDujQW8Z0UvlZ-8" value="status" style="edgeLabel;html=1;align=center;verticalAlign=middle;resizable=0;points=[];" parent="MKuPuN3oDujQW8Z0UvlZ-7" vertex="1" connectable="0">
                    <mxGeometry x="-0.0737" y="-2" relative="1" as="geometry">
                        <mxPoint as="offset"/>
                    </mxGeometry>
                </mxCell>
                <mxCell id="MKuPuN3oDujQW8Z0UvlZ-9" value="" style="endArrow=open;endFill=1;endSize=12;html=1;rounded=0;exitX=0.5;exitY=0;exitDx=0;exitDy=0;entryX=0.5;entryY=1;entryDx=0;entryDy=0;" parent="1" source="Dvfm-zlCscA2923OCoV_-6" target="M5vkDuECq_vdRbSeFoT7-8" edge="1">
                    <mxGeometry width="160" relative="1" as="geometry">
                        <mxPoint x="680" y="20" as="sourcePoint"/>
                        <mxPoint x="840" y="20" as="targetPoint"/>
                    </mxGeometry>
                </mxCell>
                <mxCell id="MKuPuN3oDujQW8Z0UvlZ-10" value="gender" style="edgeLabel;html=1;align=center;verticalAlign=middle;resizable=0;points=[];" parent="MKuPuN3oDujQW8Z0UvlZ-9" vertex="1" connectable="0">
                    <mxGeometry x="-0.2598" y="-3" relative="1" as="geometry">
                        <mxPoint as="offset"/>
                    </mxGeometry>
                </mxCell>
                <mxCell id="MKuPuN3oDujQW8Z0UvlZ-11" value="" style="endArrow=open;endFill=1;endSize=12;html=1;rounded=0;exitX=0.5;exitY=1;exitDx=0;exitDy=0;entryX=0.5;entryY=0;entryDx=0;entryDy=0;" parent="1" source="Dvfm-zlCscA2923OCoV_-10" target="M5vkDuECq_vdRbSeFoT7-6" edge="1">
                    <mxGeometry width="160" relative="1" as="geometry">
                        <mxPoint x="307" y="390" as="sourcePoint"/>
                        <mxPoint x="238" y="390" as="targetPoint"/>
                    </mxGeometry>
                </mxCell>
                <mxCell id="MKuPuN3oDujQW8Z0UvlZ-12" value="status" style="edgeLabel;html=1;align=center;verticalAlign=middle;resizable=0;points=[];" parent="MKuPuN3oDujQW8Z0UvlZ-11" vertex="1" connectable="0">
                    <mxGeometry x="-0.0737" y="-2" relative="1" as="geometry">
                        <mxPoint as="offset"/>
                    </mxGeometry>
                </mxCell>
                <mxCell id="pWOwePX6wV_Sv1NX_ACY-1" value="&lt;p style=&quot;margin:0px;margin-top:4px;text-align:center;&quot;&gt;&lt;b&gt;PointsChangeRecord&lt;/b&gt;&lt;/p&gt;&lt;hr size=&quot;1&quot; style=&quot;border-style:solid;&quot;&gt;&lt;p style=&quot;margin:0px;margin-left:4px;&quot;&gt;+ id: Long&lt;/p&gt;&lt;p style=&quot;margin:0px;margin-left:4px;&quot;&gt;+ profileID: Long&lt;/p&gt;&lt;p style=&quot;margin:0px;margin-left:4px;&quot;&gt;+ pointsChange: Integer&lt;/p&gt;&lt;p style=&quot;margin:0px;margin-left:4px;&quot;&gt;+ bookingID: Long&lt;/p&gt;&lt;p style=&quot;margin:0px;margin-left:4px;&quot;&gt;+ updateTime: DateTime&lt;/p&gt;" style="verticalAlign=top;align=left;overflow=fill;html=1;whiteSpace=wrap;" parent="1" vertex="1">
                    <mxGeometry x="65" y="470" width="190" height="110" as="geometry"/>
                </mxCell>
                <mxCell id="pWOwePX6wV_Sv1NX_ACY-2" value="&lt;p style=&quot;margin:0px;margin-top:4px;text-align:center;&quot;&gt;&lt;b&gt;PointsUpdateType&lt;/b&gt;&lt;/p&gt;&lt;hr size=&quot;1&quot; style=&quot;border-style:solid;&quot;&gt;&lt;p style=&quot;margin:0px;margin-left:4px;&quot;&gt;EARNING&lt;/p&gt;&lt;p style=&quot;margin:0px;margin-left:4px;&quot;&gt;REDEMPTION&lt;/p&gt;&lt;p style=&quot;margin:0px;margin-left:4px;&quot;&gt;RETURN&lt;/p&gt;" style="verticalAlign=top;align=left;overflow=fill;html=1;whiteSpace=wrap;" parent="1" vertex="1">
                    <mxGeometry x="80" y="640" width="160" height="90" as="geometry"/>
                </mxCell>
                <mxCell id="pWOwePX6wV_Sv1NX_ACY-4" value="" style="endArrow=open;endFill=1;endSize=12;html=1;rounded=0;exitX=0.5;exitY=1;exitDx=0;exitDy=0;entryX=0.5;entryY=0;entryDx=0;entryDy=0;" parent="1" source="pWOwePX6wV_Sv1NX_ACY-1" target="pWOwePX6wV_Sv1NX_ACY-2" edge="1">
                    <mxGeometry width="160" relative="1" as="geometry">
                        <mxPoint x="428" y="430" as="sourcePoint"/>
                        <mxPoint x="428" y="480" as="targetPoint"/>
                    </mxGeometry>
                </mxCell>
                <mxCell id="pWOwePX6wV_Sv1NX_ACY-5" value="changeType" style="edgeLabel;html=1;align=center;verticalAlign=middle;resizable=0;points=[];" parent="pWOwePX6wV_Sv1NX_ACY-4" vertex="1" connectable="0">
                    <mxGeometry x="-0.0737" y="-2" relative="1" as="geometry">
                        <mxPoint as="offset"/>
                    </mxGeometry>
                </mxCell>
                <mxCell id="pWOwePX6wV_Sv1NX_ACY-6" value="&lt;p style=&quot;margin:0px;margin-top:4px;text-align:center;&quot;&gt;&lt;b&gt;PointsUpdateResponse&lt;/b&gt;&lt;/p&gt;&lt;hr size=&quot;1&quot; style=&quot;border-style:solid;&quot;&gt;&lt;p style=&quot;margin:0px;margin-left:4px;&quot;&gt;&lt;br&gt;&lt;/p&gt;" style="verticalAlign=top;align=left;overflow=fill;html=1;whiteSpace=wrap;" parent="1" vertex="1">
                    <mxGeometry x="-280" y="400" width="205" height="80" as="geometry"/>
                </mxCell>
                <mxCell id="pWOwePX6wV_Sv1NX_ACY-7" value="" style="endArrow=open;endFill=1;endSize=12;html=1;rounded=0;exitX=1;exitY=0.5;exitDx=0;exitDy=0;entryX=0;entryY=0.5;entryDx=0;entryDy=0;" parent="1" source="pWOwePX6wV_Sv1NX_ACY-6" target="M5vkDuECq_vdRbSeFoT7-7" edge="1">
                    <mxGeometry width="160" relative="1" as="geometry">
                        <mxPoint x="170" y="590" as="sourcePoint"/>
                        <mxPoint x="170" y="650" as="targetPoint"/>
                    </mxGeometry>
                </mxCell>
                <mxCell id="pWOwePX6wV_Sv1NX_ACY-8" value="loyaltyProfile" style="edgeLabel;html=1;align=center;verticalAlign=middle;resizable=0;points=[];" parent="pWOwePX6wV_Sv1NX_ACY-7" vertex="1" connectable="0">
                    <mxGeometry x="-0.0737" y="-2" relative="1" as="geometry">
                        <mxPoint as="offset"/>
                    </mxGeometry>
                </mxCell>
                <mxCell id="pWOwePX6wV_Sv1NX_ACY-9" value="" style="endArrow=open;endFill=1;endSize=12;html=1;rounded=0;exitX=1;exitY=0.5;exitDx=0;exitDy=0;entryX=0;entryY=0.5;entryDx=0;entryDy=0;" parent="1" source="pWOwePX6wV_Sv1NX_ACY-6" target="pWOwePX6wV_Sv1NX_ACY-1" edge="1">
                    <mxGeometry width="160" relative="1" as="geometry">
                        <mxPoint x="-65" y="470" as="sourcePoint"/>
                        <mxPoint x="68" y="367" as="targetPoint"/>
                    </mxGeometry>
                </mxCell>
                <mxCell id="pWOwePX6wV_Sv1NX_ACY-10" value="pointsUpdateRecord" style="edgeLabel;html=1;align=center;verticalAlign=middle;resizable=0;points=[];" parent="pWOwePX6wV_Sv1NX_ACY-9" vertex="1" connectable="0">
                    <mxGeometry x="-0.0737" y="-2" relative="1" as="geometry">
                        <mxPoint as="offset"/>
                    </mxGeometry>
                </mxCell>
                <mxCell id="M3rBIE3QRRjPJvQGtIXK-1" value="&lt;p style=&quot;margin:0px;margin-top:4px;text-align:center;&quot;&gt;&lt;b&gt;ReservationStatus (Enum)&lt;/b&gt;&lt;/p&gt;&lt;hr size=&quot;1&quot; style=&quot;border-style:solid;&quot;&gt;&lt;p style=&quot;margin:0px;margin-left:4px;&quot;&gt;ACTIVE&lt;/p&gt;&lt;p style=&quot;margin:0px;margin-left:4px;&quot;&gt;CANCELLED&lt;/p&gt;" style="verticalAlign=top;align=left;overflow=fill;html=1;whiteSpace=wrap;" vertex="1" parent="1">
                    <mxGeometry x="1060" y="303.5" width="160" height="81" as="geometry"/>
                </mxCell>
                <mxCell id="M3rBIE3QRRjPJvQGtIXK-3" value="status" style="endArrow=block;endFill=1;html=1;edgeStyle=orthogonalEdgeStyle;align=left;verticalAlign=top;exitX=1;exitY=0.5;exitDx=0;exitDy=0;entryX=0;entryY=0.5;entryDx=0;entryDy=0;" edge="1" parent="1" source="Z2hAQXVggePsmz85tXss-5" target="M3rBIE3QRRjPJvQGtIXK-1">
                    <mxGeometry x="-1" relative="1" as="geometry">
                        <mxPoint x="990" y="230" as="sourcePoint"/>
                        <mxPoint x="1150" y="230" as="targetPoint"/>
                    </mxGeometry>
                </mxCell>
                <mxCell id="M3rBIE3QRRjPJvQGtIXK-4" value="1" style="edgeLabel;resizable=0;html=1;align=left;verticalAlign=bottom;" connectable="0" vertex="1" parent="M3rBIE3QRRjPJvQGtIXK-3">
                    <mxGeometry x="-1" relative="1" as="geometry"/>
                </mxCell>
            </root>
        </mxGraphModel>
    </diagram>
    <diagram id="LbryZ-eiwhCE1_10xVG-" name="Class">
        <mxGraphModel dx="1558" dy="2047" grid="1" gridSize="10" guides="1" tooltips="1" connect="1" arrows="1" fold="1" page="1" pageScale="1" pageWidth="850" pageHeight="1100" math="0" shadow="0">
            <root>
                <mxCell id="0"/>
                <mxCell id="1" parent="0"/>
                <mxCell id="HNqEuuUG9Iqca7Iamuzf-6" value="BookingController" style="swimlane;fontStyle=1;align=center;verticalAlign=top;childLayout=stackLayout;horizontal=1;startSize=26;horizontalStack=0;resizeParent=1;resizeParentMax=0;resizeLast=0;collapsible=1;marginBottom=0;whiteSpace=wrap;html=1;" parent="1" vertex="1">
                    <mxGeometry x="90" y="300" width="350" height="200" as="geometry"/>
                </mxCell>
                <mxCell id="HNqEuuUG9Iqca7Iamuzf-7" value="+ log: Logger" style="text;strokeColor=none;fillColor=none;align=left;verticalAlign=top;spacingLeft=4;spacingRight=4;overflow=hidden;rotatable=0;points=[[0,0.5],[1,0.5]];portConstraint=eastwest;whiteSpace=wrap;html=1;" parent="HNqEuuUG9Iqca7Iamuzf-6" vertex="1">
                    <mxGeometry y="26" width="350" height="26" as="geometry"/>
                </mxCell>
                <mxCell id="HNqEuuUG9Iqca7Iamuzf-8" value="" style="line;strokeWidth=1;fillColor=none;align=left;verticalAlign=middle;spacingTop=-1;spacingLeft=3;spacingRight=3;rotatable=0;labelPosition=right;points=[];portConstraint=eastwest;strokeColor=inherit;" parent="HNqEuuUG9Iqca7Iamuzf-6" vertex="1">
                    <mxGeometry y="52" width="350" height="8" as="geometry"/>
                </mxCell>
                <mxCell id="HNqEuuUG9Iqca7Iamuzf-9" value="+ getBooking(String id): Booking&lt;div&gt;+ getBooking(String firstName, String lastName): List&amp;lt;Booking&amp;gt;&lt;/div&gt;&lt;div&gt;+ getBooking(Long loyaltyID): List&amp;lt;Booking&amp;gt;&lt;/div&gt;&lt;div&gt;+ bookFlight(Flight flight, String firstName: String lastName, Long loyaltyID, Boolean redeemPoints): Booking&lt;/div&gt;&lt;div&gt;+ cancelBooking(Long id): Booking&lt;/div&gt;" style="text;strokeColor=none;fillColor=none;align=left;verticalAlign=top;spacingLeft=4;spacingRight=4;overflow=hidden;rotatable=0;points=[[0,0.5],[1,0.5]];portConstraint=eastwest;whiteSpace=wrap;html=1;" parent="HNqEuuUG9Iqca7Iamuzf-6" vertex="1">
                    <mxGeometry y="60" width="350" height="140" as="geometry"/>
                </mxCell>
                <mxCell id="lSep4ySnV_ZnTiSL0oqH-1" value="&lt;div&gt;&lt;span style=&quot;font-weight: normal;&quot;&gt;&amp;lt;&amp;lt;interface&amp;gt;&amp;gt;&lt;/span&gt;&lt;/div&gt;BookingService" style="swimlane;fontStyle=1;align=center;verticalAlign=top;childLayout=stackLayout;horizontal=1;startSize=40;horizontalStack=0;resizeParent=1;resizeParentMax=0;resizeLast=0;collapsible=1;marginBottom=0;whiteSpace=wrap;html=1;" parent="1" vertex="1">
                    <mxGeometry x="550" y="294" width="320" height="180" as="geometry"/>
                </mxCell>
                <mxCell id="lSep4ySnV_ZnTiSL0oqH-3" value="" style="line;strokeWidth=1;fillColor=none;align=left;verticalAlign=middle;spacingTop=-1;spacingLeft=3;spacingRight=3;rotatable=0;labelPosition=right;points=[];portConstraint=eastwest;strokeColor=inherit;" parent="lSep4ySnV_ZnTiSL0oqH-1" vertex="1">
                    <mxGeometry y="40" width="320" height="8" as="geometry"/>
                </mxCell>
                <mxCell id="lSep4ySnV_ZnTiSL0oqH-4" value="+ getBooking(String id): Booking&lt;div&gt;+ getBooking(String firstName, String lastName): List&amp;lt;Booking&amp;gt;&lt;/div&gt;&lt;div&gt;+ getBooking(Long loyaltyID): List&amp;lt;Booking&amp;gt;&lt;/div&gt;&lt;div&gt;+ bookFlight(Flight flight, String firstName: String lastName): Booking&lt;/div&gt;&lt;div&gt;+ cancelBooking(Long id): Booking&lt;/div&gt;" style="text;strokeColor=none;fillColor=none;align=left;verticalAlign=top;spacingLeft=4;spacingRight=4;overflow=hidden;rotatable=0;points=[[0,0.5],[1,0.5]];portConstraint=eastwest;whiteSpace=wrap;html=1;" parent="lSep4ySnV_ZnTiSL0oqH-1" vertex="1">
                    <mxGeometry y="48" width="320" height="132" as="geometry"/>
                </mxCell>
                <mxCell id="lSep4ySnV_ZnTiSL0oqH-5" value="" style="endArrow=open;endFill=1;endSize=12;html=1;rounded=0;exitX=1.006;exitY=0.267;exitDx=0;exitDy=0;exitPerimeter=0;entryX=-0.004;entryY=0.419;entryDx=0;entryDy=0;entryPerimeter=0;" parent="1" source="HNqEuuUG9Iqca7Iamuzf-9" target="lSep4ySnV_ZnTiSL0oqH-4" edge="1">
                    <mxGeometry width="160" relative="1" as="geometry">
                        <mxPoint x="450" y="400" as="sourcePoint"/>
                        <mxPoint x="610" y="400" as="targetPoint"/>
                    </mxGeometry>
                </mxCell>
                <mxCell id="lSep4ySnV_ZnTiSL0oqH-6" value="bookingSvc" style="edgeLabel;html=1;align=center;verticalAlign=middle;resizable=0;points=[];" parent="lSep4ySnV_ZnTiSL0oqH-5" vertex="1" connectable="0">
                    <mxGeometry x="-0.0781" y="-3" relative="1" as="geometry">
                        <mxPoint as="offset"/>
                    </mxGeometry>
                </mxCell>
                <mxCell id="Wcj06OQfmW3-fxuCJzBg-1" value="&lt;div&gt;&lt;span style=&quot;font-weight: normal;&quot;&gt;&amp;lt;&amp;lt;interface&amp;gt;&amp;gt;&lt;/span&gt;&lt;/div&gt;FlightInventoryService" style="swimlane;fontStyle=1;align=center;verticalAlign=top;childLayout=stackLayout;horizontal=1;startSize=40;horizontalStack=0;resizeParent=1;resizeParentMax=0;resizeLast=0;collapsible=1;marginBottom=0;whiteSpace=wrap;html=1;" parent="1" vertex="1">
                    <mxGeometry x="550" y="690" width="340" height="150" as="geometry"/>
                </mxCell>
                <mxCell id="Wcj06OQfmW3-fxuCJzBg-2" value="" style="line;strokeWidth=1;fillColor=none;align=left;verticalAlign=middle;spacingTop=-1;spacingLeft=3;spacingRight=3;rotatable=0;labelPosition=right;points=[];portConstraint=eastwest;strokeColor=inherit;" parent="Wcj06OQfmW3-fxuCJzBg-1" vertex="1">
                    <mxGeometry y="40" width="340" height="8" as="geometry"/>
                </mxCell>
                <mxCell id="Wcj06OQfmW3-fxuCJzBg-3" value="&lt;div&gt;+ searchFlights(String origin, String destination, LocaleDateTime departureDate, Integer seatAmount): List&amp;lt;Flight&amp;gt;&lt;/div&gt;&lt;div&gt;+ reserveSeat(Flight flight, Integer seatAmount): Reservation&lt;/div&gt;&lt;div&gt;+ cancelReservation(Long reservationID): void&lt;/div&gt;" style="text;strokeColor=none;fillColor=none;align=left;verticalAlign=top;spacingLeft=4;spacingRight=4;overflow=hidden;rotatable=0;points=[[0,0.5],[1,0.5]];portConstraint=eastwest;whiteSpace=wrap;html=1;" parent="Wcj06OQfmW3-fxuCJzBg-1" vertex="1">
                    <mxGeometry y="48" width="340" height="102" as="geometry"/>
                </mxCell>
                <mxCell id="naf6SYNPhT5u4mwmERCV-5" value="" style="endArrow=open;endFill=1;endSize=12;html=1;rounded=0;entryX=0;entryY=0.038;entryDx=0;entryDy=0;entryPerimeter=0;exitX=1;exitY=0.5;exitDx=0;exitDy=0;" parent="1" source="HNqEuuUG9Iqca7Iamuzf-9" target="bH-xs8faslM0OxpcbIlB-13" edge="1">
                    <mxGeometry width="160" relative="1" as="geometry">
                        <mxPoint x="370" y="625" as="sourcePoint"/>
                        <mxPoint x="559" y="407" as="targetPoint"/>
                    </mxGeometry>
                </mxCell>
                <mxCell id="naf6SYNPhT5u4mwmERCV-6" value="flightInventoryAdapter" style="edgeLabel;html=1;align=center;verticalAlign=middle;resizable=0;points=[];" parent="naf6SYNPhT5u4mwmERCV-5" vertex="1" connectable="0">
                    <mxGeometry x="-0.0781" y="-3" relative="1" as="geometry">
                        <mxPoint x="14" y="15" as="offset"/>
                    </mxGeometry>
                </mxCell>
                <mxCell id="bH-xs8faslM0OxpcbIlB-1" value="FlightInventoryController" style="swimlane;fontStyle=1;align=center;verticalAlign=top;childLayout=stackLayout;horizontal=1;startSize=26;horizontalStack=0;resizeParent=1;resizeParentMax=0;resizeLast=0;collapsible=1;marginBottom=0;whiteSpace=wrap;html=1;" parent="1" vertex="1">
                    <mxGeometry x="110" y="710" width="310" height="180" as="geometry"/>
                </mxCell>
                <mxCell id="bH-xs8faslM0OxpcbIlB-2" value="+ log: Logger" style="text;strokeColor=none;fillColor=none;align=left;verticalAlign=top;spacingLeft=4;spacingRight=4;overflow=hidden;rotatable=0;points=[[0,0.5],[1,0.5]];portConstraint=eastwest;whiteSpace=wrap;html=1;" parent="bH-xs8faslM0OxpcbIlB-1" vertex="1">
                    <mxGeometry y="26" width="310" height="26" as="geometry"/>
                </mxCell>
                <mxCell id="bH-xs8faslM0OxpcbIlB-3" value="" style="line;strokeWidth=1;fillColor=none;align=left;verticalAlign=middle;spacingTop=-1;spacingLeft=3;spacingRight=3;rotatable=0;labelPosition=right;points=[];portConstraint=eastwest;strokeColor=inherit;" parent="bH-xs8faslM0OxpcbIlB-1" vertex="1">
                    <mxGeometry y="52" width="310" height="8" as="geometry"/>
                </mxCell>
                <mxCell id="bH-xs8faslM0OxpcbIlB-4" value="&lt;div&gt;+ searchFlights(String origin, String destination, LocaleDateTime departureDate, Integer seatAmount): List&amp;lt;Flight&amp;gt;&lt;/div&gt;&lt;div&gt;+ reserveSeat(Flight flight, Integer seatAmount): Reservation&lt;/div&gt;&lt;div&gt;+ cancelReservation(Long reservationID): void&lt;/div&gt;" style="text;strokeColor=none;fillColor=none;align=left;verticalAlign=top;spacingLeft=4;spacingRight=4;overflow=hidden;rotatable=0;points=[[0,0.5],[1,0.5]];portConstraint=eastwest;whiteSpace=wrap;html=1;" parent="bH-xs8faslM0OxpcbIlB-1" vertex="1">
                    <mxGeometry y="60" width="310" height="120" as="geometry"/>
                </mxCell>
                <mxCell id="bH-xs8faslM0OxpcbIlB-5" value="" style="endArrow=open;endFill=1;endSize=12;html=1;rounded=0;entryX=0;entryY=0.5;entryDx=0;entryDy=0;exitX=1.008;exitY=0.16;exitDx=0;exitDy=0;exitPerimeter=0;" parent="1" source="bH-xs8faslM0OxpcbIlB-4" target="Wcj06OQfmW3-fxuCJzBg-3" edge="1">
                    <mxGeometry width="160" relative="1" as="geometry">
                        <mxPoint x="402" y="528" as="sourcePoint"/>
                        <mxPoint x="590" y="632" as="targetPoint"/>
                    </mxGeometry>
                </mxCell>
                <mxCell id="bH-xs8faslM0OxpcbIlB-6" value="flightInventorySvc" style="edgeLabel;html=1;align=center;verticalAlign=middle;resizable=0;points=[];" parent="bH-xs8faslM0OxpcbIlB-5" vertex="1" connectable="0">
                    <mxGeometry x="-0.0781" y="-3" relative="1" as="geometry">
                        <mxPoint as="offset"/>
                    </mxGeometry>
                </mxCell>
                <mxCell id="bH-xs8faslM0OxpcbIlB-7" value="LoyaltyController" style="swimlane;fontStyle=1;align=center;verticalAlign=top;childLayout=stackLayout;horizontal=1;startSize=26;horizontalStack=0;resizeParent=1;resizeParentMax=0;resizeLast=0;collapsible=1;marginBottom=0;whiteSpace=wrap;html=1;" parent="1" vertex="1">
                    <mxGeometry x="-45" y="89" width="505" height="140" as="geometry">
                        <mxRectangle x="-70" y="90" width="130" height="30" as="alternateBounds"/>
                    </mxGeometry>
                </mxCell>
                <mxCell id="bH-xs8faslM0OxpcbIlB-8" value="+ log: Logger" style="text;strokeColor=none;fillColor=none;align=left;verticalAlign=top;spacingLeft=4;spacingRight=4;overflow=hidden;rotatable=0;points=[[0,0.5],[1,0.5]];portConstraint=eastwest;whiteSpace=wrap;html=1;" parent="bH-xs8faslM0OxpcbIlB-7" vertex="1">
                    <mxGeometry y="26" width="505" height="26" as="geometry"/>
                </mxCell>
                <mxCell id="bH-xs8faslM0OxpcbIlB-9" value="" style="line;strokeWidth=1;fillColor=none;align=left;verticalAlign=middle;spacingTop=-1;spacingLeft=3;spacingRight=3;rotatable=0;labelPosition=right;points=[];portConstraint=eastwest;strokeColor=inherit;" parent="bH-xs8faslM0OxpcbIlB-7" vertex="1">
                    <mxGeometry y="52" width="505" height="8" as="geometry"/>
                </mxCell>
                <mxCell id="bH-xs8faslM0OxpcbIlB-10" value="&lt;div&gt;+ getProfile(Long id): LoyaltyProfile&lt;/div&gt;&lt;div&gt;+ redeemPoints(Long id, Long bookingID, BigDecimal price): PointsUpdateResponse&lt;/div&gt;&lt;div&gt;+ earnPoints(Long id,&amp;nbsp;&lt;span style=&quot;background-color: transparent; color: light-dark(rgb(0, 0, 0), rgb(255, 255, 255));&quot;&gt;Long bookingID,&lt;/span&gt;&lt;span style=&quot;background-color: transparent; color: light-dark(rgb(0, 0, 0), rgb(255, 255, 255));&quot;&gt;&amp;nbsp;&lt;/span&gt;&lt;span style=&quot;background-color: transparent; color: light-dark(rgb(0, 0, 0), rgb(255, 255, 255));&quot;&gt;BigDecimal price):&amp;nbsp;&lt;/span&gt;&lt;span style=&quot;background-color: transparent; color: light-dark(rgb(0, 0, 0), rgb(255, 255, 255));&quot;&gt;PointsUpdateResponse&lt;/span&gt;&lt;/div&gt;&lt;div&gt;+ returnPoints(Long id,&amp;nbsp;&lt;span style=&quot;background-color: transparent; color: light-dark(rgb(0, 0, 0), rgb(255, 255, 255));&quot;&gt;Long bookingID,&lt;/span&gt;&lt;span style=&quot;background-color: transparent; color: light-dark(rgb(0, 0, 0), rgb(255, 255, 255));&quot;&gt;&amp;nbsp;&amp;nbsp;&lt;/span&gt;&lt;span style=&quot;background-color: transparent; color: light-dark(rgb(0, 0, 0), rgb(255, 255, 255));&quot;&gt;Long pointsToReturn):&amp;nbsp;&lt;/span&gt;&lt;span style=&quot;background-color: transparent; color: light-dark(rgb(0, 0, 0), rgb(255, 255, 255));&quot;&gt;PointsUpdateResponse&lt;/span&gt;&lt;/div&gt;" style="text;strokeColor=none;fillColor=none;align=left;verticalAlign=top;spacingLeft=4;spacingRight=4;overflow=hidden;rotatable=0;points=[[0,0.5],[1,0.5]];portConstraint=eastwest;whiteSpace=wrap;html=1;" parent="bH-xs8faslM0OxpcbIlB-7" vertex="1">
                    <mxGeometry y="60" width="505" height="80" as="geometry"/>
                </mxCell>
                <mxCell id="bH-xs8faslM0OxpcbIlB-11" value="&lt;div&gt;&lt;span style=&quot;font-weight: normal;&quot;&gt;&amp;lt;&amp;lt;interface&amp;gt;&amp;gt;&lt;/span&gt;&lt;/div&gt;FlightInventoryAdapter" style="swimlane;fontStyle=1;align=center;verticalAlign=top;childLayout=stackLayout;horizontal=1;startSize=40;horizontalStack=0;resizeParent=1;resizeParentMax=0;resizeLast=0;collapsible=1;marginBottom=0;whiteSpace=wrap;html=1;" parent="1" vertex="1">
                    <mxGeometry x="522.5" y="540" width="375" height="100" as="geometry"/>
                </mxCell>
                <mxCell id="bH-xs8faslM0OxpcbIlB-12" value="" style="line;strokeWidth=1;fillColor=none;align=left;verticalAlign=middle;spacingTop=-1;spacingLeft=3;spacingRight=3;rotatable=0;labelPosition=right;points=[];portConstraint=eastwest;strokeColor=inherit;" parent="bH-xs8faslM0OxpcbIlB-11" vertex="1">
                    <mxGeometry y="40" width="375" height="8" as="geometry"/>
                </mxCell>
                <mxCell id="bH-xs8faslM0OxpcbIlB-13" value="+ reserveSeat(Flight flight, Integer seatAmount): Reservation&lt;div&gt;+ cancelReservation(Long reservationID): void&lt;/div&gt;" style="text;strokeColor=none;fillColor=none;align=left;verticalAlign=top;spacingLeft=4;spacingRight=4;overflow=hidden;rotatable=0;points=[[0,0.5],[1,0.5]];portConstraint=eastwest;whiteSpace=wrap;html=1;" parent="bH-xs8faslM0OxpcbIlB-11" vertex="1">
                    <mxGeometry y="48" width="375" height="52" as="geometry"/>
                </mxCell>
                <mxCell id="bH-xs8faslM0OxpcbIlB-14" value="&lt;div&gt;&lt;span style=&quot;font-weight: normal;&quot;&gt;&amp;lt;&amp;lt;interface&amp;gt;&amp;gt;&lt;/span&gt;&lt;/div&gt;BookingRepo" style="swimlane;fontStyle=1;align=center;verticalAlign=top;childLayout=stackLayout;horizontal=1;startSize=40;horizontalStack=0;resizeParent=1;resizeParentMax=0;resizeLast=0;collapsible=1;marginBottom=0;whiteSpace=wrap;html=1;" parent="1" vertex="1">
                    <mxGeometry x="990" y="309" width="320" height="150" as="geometry"/>
                </mxCell>
                <mxCell id="bH-xs8faslM0OxpcbIlB-15" value="" style="line;strokeWidth=1;fillColor=none;align=left;verticalAlign=middle;spacingTop=-1;spacingLeft=3;spacingRight=3;rotatable=0;labelPosition=right;points=[];portConstraint=eastwest;strokeColor=inherit;" parent="bH-xs8faslM0OxpcbIlB-14" vertex="1">
                    <mxGeometry y="40" width="320" height="8" as="geometry"/>
                </mxCell>
                <mxCell id="bH-xs8faslM0OxpcbIlB-16" value="+ findById(String id): Booking&lt;div&gt;+ findByFirstNameAndLastName(String firstName, String lastName): List&amp;lt;Booking&amp;gt;&lt;/div&gt;&lt;div&gt;+ findByLoyaltyID(Long loyaltyID): List&amp;lt;Booking&amp;gt;&lt;/div&gt;&lt;div&gt;+ save(Booking booking): Booking&lt;/div&gt;" style="text;strokeColor=none;fillColor=none;align=left;verticalAlign=top;spacingLeft=4;spacingRight=4;overflow=hidden;rotatable=0;points=[[0,0.5],[1,0.5]];portConstraint=eastwest;whiteSpace=wrap;html=1;" parent="bH-xs8faslM0OxpcbIlB-14" vertex="1">
                    <mxGeometry y="48" width="320" height="102" as="geometry"/>
                </mxCell>
                <mxCell id="bH-xs8faslM0OxpcbIlB-17" value="" style="endArrow=open;endFill=1;endSize=12;html=1;rounded=0;exitX=0.999;exitY=0.401;exitDx=0;exitDy=0;exitPerimeter=0;entryX=-0.012;entryY=0.388;entryDx=0;entryDy=0;entryPerimeter=0;" parent="1" source="lSep4ySnV_ZnTiSL0oqH-4" target="bH-xs8faslM0OxpcbIlB-16" edge="1">
                    <mxGeometry width="160" relative="1" as="geometry">
                        <mxPoint x="452" y="407" as="sourcePoint"/>
                        <mxPoint x="559" y="407" as="targetPoint"/>
                    </mxGeometry>
                </mxCell>
                <mxCell id="bH-xs8faslM0OxpcbIlB-18" value="repo" style="edgeLabel;html=1;align=center;verticalAlign=middle;resizable=0;points=[];" parent="bH-xs8faslM0OxpcbIlB-17" vertex="1" connectable="0">
                    <mxGeometry x="-0.0781" y="-3" relative="1" as="geometry">
                        <mxPoint as="offset"/>
                    </mxGeometry>
                </mxCell>
                <mxCell id="bH-xs8faslM0OxpcbIlB-19" value="" style="endArrow=open;endFill=1;endSize=12;html=1;rounded=0;exitX=0.499;exitY=1.013;exitDx=0;exitDy=0;exitPerimeter=0;" parent="1" source="lSep4ySnV_ZnTiSL0oqH-4" target="bH-xs8faslM0OxpcbIlB-11" edge="1">
                    <mxGeometry width="160" relative="1" as="geometry">
                        <mxPoint x="413" y="510" as="sourcePoint"/>
                        <mxPoint x="590" y="600" as="targetPoint"/>
                    </mxGeometry>
                </mxCell>
                <mxCell id="bH-xs8faslM0OxpcbIlB-20" value="flightInventoryAdapter" style="edgeLabel;html=1;align=center;verticalAlign=middle;resizable=0;points=[];" parent="bH-xs8faslM0OxpcbIlB-19" vertex="1" connectable="0">
                    <mxGeometry x="-0.0781" y="-3" relative="1" as="geometry">
                        <mxPoint as="offset"/>
                    </mxGeometry>
                </mxCell>
                <mxCell id="bH-xs8faslM0OxpcbIlB-21" value="&lt;div&gt;&lt;span style=&quot;font-weight: normal;&quot;&gt;&amp;lt;&amp;lt;interface&amp;gt;&amp;gt;&lt;/span&gt;&lt;/div&gt;LoyaltyService" style="swimlane;fontStyle=1;align=center;verticalAlign=top;childLayout=stackLayout;horizontal=1;startSize=40;horizontalStack=0;resizeParent=1;resizeParentMax=0;resizeLast=0;collapsible=1;marginBottom=0;whiteSpace=wrap;html=1;" parent="1" vertex="1">
                    <mxGeometry x="550" y="100" width="370" height="130" as="geometry"/>
                </mxCell>
                <mxCell id="bH-xs8faslM0OxpcbIlB-22" value="" style="line;strokeWidth=1;fillColor=none;align=left;verticalAlign=middle;spacingTop=-1;spacingLeft=3;spacingRight=3;rotatable=0;labelPosition=right;points=[];portConstraint=eastwest;strokeColor=inherit;" parent="bH-xs8faslM0OxpcbIlB-21" vertex="1">
                    <mxGeometry y="40" width="370" height="8" as="geometry"/>
                </mxCell>
                <mxCell id="bH-xs8faslM0OxpcbIlB-23" value="&lt;div&gt;+ getProfile(Long id): LoyaltyProfile&lt;/div&gt;&lt;div&gt;+ redeemPoints(Long id, BigDecimal price):&amp;nbsp;&lt;span style=&quot;background-color: transparent; color: light-dark(rgb(0, 0, 0), rgb(255, 255, 255));&quot;&gt;PointsChangeRecord&lt;/span&gt;&lt;/div&gt;&lt;div&gt;+ earnPoints(Long id,&amp;nbsp;&lt;span style=&quot;background-color: transparent; color: light-dark(rgb(0, 0, 0), rgb(255, 255, 255));&quot;&gt;BigDecimal price&lt;/span&gt;&lt;span style=&quot;background-color: transparent; color: light-dark(rgb(0, 0, 0), rgb(255, 255, 255));&quot;&gt;):&amp;nbsp;&lt;/span&gt;&lt;span style=&quot;background-color: transparent; color: light-dark(rgb(0, 0, 0), rgb(255, 255, 255));&quot;&gt;PointsChangeRecord&lt;/span&gt;&lt;/div&gt;" style="text;strokeColor=none;fillColor=none;align=left;verticalAlign=top;spacingLeft=4;spacingRight=4;overflow=hidden;rotatable=0;points=[[0,0.5],[1,0.5]];portConstraint=eastwest;whiteSpace=wrap;html=1;" parent="bH-xs8faslM0OxpcbIlB-21" vertex="1">
                    <mxGeometry y="48" width="370" height="82" as="geometry"/>
                </mxCell>
                <mxCell id="bH-xs8faslM0OxpcbIlB-25" value="" style="endArrow=open;endFill=1;endSize=12;html=1;rounded=0;exitX=1;exitY=0.5;exitDx=0;exitDy=0;entryX=0;entryY=0.5;entryDx=0;entryDy=0;" parent="1" source="bH-xs8faslM0OxpcbIlB-10" target="bH-xs8faslM0OxpcbIlB-23" edge="1">
                    <mxGeometry width="160" relative="1" as="geometry">
                        <mxPoint x="443" y="180" as="sourcePoint"/>
                        <mxPoint x="550" y="180" as="targetPoint"/>
                    </mxGeometry>
                </mxCell>
                <mxCell id="bH-xs8faslM0OxpcbIlB-26" value="loyaltySvc" style="edgeLabel;html=1;align=center;verticalAlign=middle;resizable=0;points=[];" parent="bH-xs8faslM0OxpcbIlB-25" vertex="1" connectable="0">
                    <mxGeometry x="-0.0781" y="-3" relative="1" as="geometry">
                        <mxPoint as="offset"/>
                    </mxGeometry>
                </mxCell>
                <mxCell id="bH-xs8faslM0OxpcbIlB-27" value="&lt;div&gt;&lt;span style=&quot;font-weight: normal;&quot;&gt;&amp;lt;&amp;lt;interface&amp;gt;&amp;gt;&lt;/span&gt;&lt;/div&gt;ProfileRepo" style="swimlane;fontStyle=1;align=center;verticalAlign=top;childLayout=stackLayout;horizontal=1;startSize=40;horizontalStack=0;resizeParent=1;resizeParentMax=0;resizeLast=0;collapsible=1;marginBottom=0;whiteSpace=wrap;html=1;" parent="1" vertex="1">
                    <mxGeometry x="1002" y="110" width="220" height="110" as="geometry"/>
                </mxCell>
                <mxCell id="bH-xs8faslM0OxpcbIlB-28" value="" style="line;strokeWidth=1;fillColor=none;align=left;verticalAlign=middle;spacingTop=-1;spacingLeft=3;spacingRight=3;rotatable=0;labelPosition=right;points=[];portConstraint=eastwest;strokeColor=inherit;" parent="bH-xs8faslM0OxpcbIlB-27" vertex="1">
                    <mxGeometry y="40" width="220" height="8" as="geometry"/>
                </mxCell>
                <mxCell id="bH-xs8faslM0OxpcbIlB-29" value="+ findById(String id): Booking&lt;div&gt;+ save(Booking booking): Booking&lt;/div&gt;" style="text;strokeColor=none;fillColor=none;align=left;verticalAlign=top;spacingLeft=4;spacingRight=4;overflow=hidden;rotatable=0;points=[[0,0.5],[1,0.5]];portConstraint=eastwest;whiteSpace=wrap;html=1;" parent="bH-xs8faslM0OxpcbIlB-27" vertex="1">
                    <mxGeometry y="48" width="220" height="62" as="geometry"/>
                </mxCell>
                <mxCell id="bH-xs8faslM0OxpcbIlB-30" value="" style="endArrow=open;endFill=1;endSize=12;html=1;rounded=0;" parent="1" source="bH-xs8faslM0OxpcbIlB-23" target="bH-xs8faslM0OxpcbIlB-29" edge="1">
                    <mxGeometry width="160" relative="1" as="geometry">
                        <mxPoint x="870" y="180" as="sourcePoint"/>
                        <mxPoint x="975" y="180" as="targetPoint"/>
                    </mxGeometry>
                </mxCell>
                <mxCell id="bH-xs8faslM0OxpcbIlB-31" value="profileRepo" style="edgeLabel;html=1;align=center;verticalAlign=middle;resizable=0;points=[];" parent="bH-xs8faslM0OxpcbIlB-30" vertex="1" connectable="0">
                    <mxGeometry x="-0.0781" y="-3" relative="1" as="geometry">
                        <mxPoint as="offset"/>
                    </mxGeometry>
                </mxCell>
                <mxCell id="bH-xs8faslM0OxpcbIlB-32" value="&lt;div&gt;&lt;span style=&quot;font-weight: normal;&quot;&gt;&amp;lt;&amp;lt;interface&amp;gt;&amp;gt;&lt;/span&gt;&lt;/div&gt;LoyaltyAdapter" style="swimlane;fontStyle=1;align=center;verticalAlign=top;childLayout=stackLayout;horizontal=1;startSize=40;horizontalStack=0;resizeParent=1;resizeParentMax=0;resizeLast=0;collapsible=1;marginBottom=0;whiteSpace=wrap;html=1;" parent="1" vertex="1">
                    <mxGeometry x="962.5" y="530" width="375" height="150" as="geometry"/>
                </mxCell>
                <mxCell id="bH-xs8faslM0OxpcbIlB-33" value="" style="line;strokeWidth=1;fillColor=none;align=left;verticalAlign=middle;spacingTop=-1;spacingLeft=3;spacingRight=3;rotatable=0;labelPosition=right;points=[];portConstraint=eastwest;strokeColor=inherit;" parent="bH-xs8faslM0OxpcbIlB-32" vertex="1">
                    <mxGeometry y="40" width="375" height="8" as="geometry"/>
                </mxCell>
                <mxCell id="bH-xs8faslM0OxpcbIlB-34" value="&lt;div&gt;+ redeemPoints(Long id, Long bookingID, BigDecimal price): PointsRedemption&lt;/div&gt;&lt;div&gt;+ earnPoints(Long id, Long booking ID, BigDecimal price): PointsEarning&lt;/div&gt;&lt;div&gt;+ returnPoints(Long id, Long booking ID, Long pointsToReturn):&amp;nbsp;&lt;span style=&quot;background-color: transparent; color: light-dark(rgb(0, 0, 0), rgb(255, 255, 255));&quot;&gt;LoyaltyProfile&lt;/span&gt;&lt;/div&gt;" style="text;strokeColor=none;fillColor=none;align=left;verticalAlign=top;spacingLeft=4;spacingRight=4;overflow=hidden;rotatable=0;points=[[0,0.5],[1,0.5]];portConstraint=eastwest;whiteSpace=wrap;html=1;" parent="bH-xs8faslM0OxpcbIlB-32" vertex="1">
                    <mxGeometry y="48" width="375" height="102" as="geometry"/>
                </mxCell>
                <mxCell id="bH-xs8faslM0OxpcbIlB-35" value="" style="endArrow=open;endFill=1;endSize=12;html=1;rounded=0;exitX=0.996;exitY=0.679;exitDx=0;exitDy=0;exitPerimeter=0;" parent="1" source="lSep4ySnV_ZnTiSL0oqH-4" target="bH-xs8faslM0OxpcbIlB-32" edge="1">
                    <mxGeometry width="160" relative="1" as="geometry">
                        <mxPoint x="880" y="405" as="sourcePoint"/>
                        <mxPoint x="996" y="407" as="targetPoint"/>
                    </mxGeometry>
                </mxCell>
                <mxCell id="bH-xs8faslM0OxpcbIlB-36" value="loyaltyAdapter" style="edgeLabel;html=1;align=center;verticalAlign=middle;resizable=0;points=[];" parent="bH-xs8faslM0OxpcbIlB-35" vertex="1" connectable="0">
                    <mxGeometry x="-0.0781" y="-3" relative="1" as="geometry">
                        <mxPoint as="offset"/>
                    </mxGeometry>
                </mxCell>
                <mxCell id="tqGzCEfl9h32QKBdKs25-1" value="&lt;div&gt;&lt;span style=&quot;font-weight: normal;&quot;&gt;&amp;lt;&amp;lt;interface&amp;gt;&amp;gt;&lt;/span&gt;&lt;/div&gt;&lt;b&gt;PointsChangeRecordRepo&lt;/b&gt;" style="swimlane;fontStyle=1;align=center;verticalAlign=top;childLayout=stackLayout;horizontal=1;startSize=40;horizontalStack=0;resizeParent=1;resizeParentMax=0;resizeLast=0;collapsible=1;marginBottom=0;whiteSpace=wrap;html=1;" parent="1" vertex="1">
                    <mxGeometry x="1000" y="-40" width="220" height="110" as="geometry"/>
                </mxCell>
                <mxCell id="tqGzCEfl9h32QKBdKs25-2" value="" style="line;strokeWidth=1;fillColor=none;align=left;verticalAlign=middle;spacingTop=-1;spacingLeft=3;spacingRight=3;rotatable=0;labelPosition=right;points=[];portConstraint=eastwest;strokeColor=inherit;" parent="tqGzCEfl9h32QKBdKs25-1" vertex="1">
                    <mxGeometry y="40" width="220" height="8" as="geometry"/>
                </mxCell>
                <mxCell id="tqGzCEfl9h32QKBdKs25-3" value="&lt;div&gt;+ save(PointsChangeRecord changeRecord):&amp;nbsp;&lt;span style=&quot;background-color: transparent; color: light-dark(rgb(0, 0, 0), rgb(255, 255, 255));&quot;&gt;PointsChangeRecord&lt;/span&gt;&lt;/div&gt;" style="text;strokeColor=none;fillColor=none;align=left;verticalAlign=top;spacingLeft=4;spacingRight=4;overflow=hidden;rotatable=0;points=[[0,0.5],[1,0.5]];portConstraint=eastwest;whiteSpace=wrap;html=1;" parent="tqGzCEfl9h32QKBdKs25-1" vertex="1">
                    <mxGeometry y="48" width="220" height="62" as="geometry"/>
                </mxCell>
                <mxCell id="tqGzCEfl9h32QKBdKs25-4" value="" style="endArrow=open;endFill=1;endSize=12;html=1;rounded=0;exitX=1;exitY=0.5;exitDx=0;exitDy=0;entryX=0;entryY=0.5;entryDx=0;entryDy=0;" parent="1" source="bH-xs8faslM0OxpcbIlB-23" target="tqGzCEfl9h32QKBdKs25-3" edge="1">
                    <mxGeometry width="160" relative="1" as="geometry">
                        <mxPoint x="930" y="199" as="sourcePoint"/>
                        <mxPoint x="1010" y="199" as="targetPoint"/>
                    </mxGeometry>
                </mxCell>
                <mxCell id="tqGzCEfl9h32QKBdKs25-5" value="repo" style="edgeLabel;html=1;align=center;verticalAlign=middle;resizable=0;points=[];" parent="tqGzCEfl9h32QKBdKs25-4" vertex="1" connectable="0">
                    <mxGeometry x="-0.0781" y="-3" relative="1" as="geometry">
                        <mxPoint as="offset"/>
                    </mxGeometry>
                </mxCell>
            </root>
        </mxGraphModel>
    </diagram>
    <diagram id="M930bOly9HQ1igaa5mXl" name="UC - Search Flights">
        <mxGraphModel dx="1642" dy="747" grid="1" gridSize="10" guides="1" tooltips="1" connect="1" arrows="1" fold="1" page="1" pageScale="1" pageWidth="850" pageHeight="1100" math="0" shadow="0">
            <root>
                <mxCell id="0"/>
                <mxCell id="1" parent="0"/>
                <mxCell id="JARyXL21HYfTaLZwsMS6-5" value=":Flight Inventory Service" style="shape=umlLifeline;perimeter=lifelinePerimeter;whiteSpace=wrap;html=1;container=1;dropTarget=0;collapsible=0;recursiveResize=0;outlineConnect=0;portConstraint=eastwest;newEdgeStyle={&quot;curved&quot;:0,&quot;rounded&quot;:0};" parent="1" vertex="1">
                    <mxGeometry x="311" y="40" width="100" height="300" as="geometry"/>
                </mxCell>
                <mxCell id="JARyXL21HYfTaLZwsMS6-24" value="" style="html=1;points=[[0,0,0,0,5],[0,1,0,0,-5],[1,0,0,0,5],[1,1,0,0,-5]];perimeter=orthogonalPerimeter;outlineConnect=0;targetShapes=umlLifeline;portConstraint=eastwest;newEdgeStyle={&quot;curved&quot;:0,&quot;rounded&quot;:0};" parent="JARyXL21HYfTaLZwsMS6-5" vertex="1">
                    <mxGeometry x="45" y="70" width="10" height="120" as="geometry"/>
                </mxCell>
                <mxCell id="GLTWtukR0GTYuiWu2sJE-1" value="" style="html=1;points=[[0,0,0,0,5],[0,1,0,0,-5],[1,0,0,0,5],[1,1,0,0,-5]];perimeter=orthogonalPerimeter;outlineConnect=0;targetShapes=umlLifeline;portConstraint=eastwest;newEdgeStyle={&quot;curved&quot;:0,&quot;rounded&quot;:0};" parent="JARyXL21HYfTaLZwsMS6-5" vertex="1">
                    <mxGeometry x="50" y="120" width="10" height="40" as="geometry"/>
                </mxCell>
                <mxCell id="GLTWtukR0GTYuiWu2sJE-2" value="find flights" style="html=1;align=left;spacingLeft=2;endArrow=block;rounded=0;edgeStyle=orthogonalEdgeStyle;curved=0;rounded=0;" parent="JARyXL21HYfTaLZwsMS6-5" target="GLTWtukR0GTYuiWu2sJE-1" edge="1">
                    <mxGeometry relative="1" as="geometry">
                        <mxPoint x="55" y="100" as="sourcePoint"/>
                        <Array as="points">
                            <mxPoint x="85" y="130"/>
                        </Array>
                    </mxGeometry>
                </mxCell>
                <mxCell id="JARyXL21HYfTaLZwsMS6-7" value="" style="shape=umlLifeline;perimeter=lifelinePerimeter;whiteSpace=wrap;html=1;container=1;dropTarget=0;collapsible=0;recursiveResize=0;outlineConnect=0;portConstraint=eastwest;newEdgeStyle={&quot;curved&quot;:0,&quot;rounded&quot;:0};participant=umlActor;" parent="1" vertex="1">
                    <mxGeometry x="70" y="40" width="20" height="300" as="geometry"/>
                </mxCell>
                <mxCell id="JARyXL21HYfTaLZwsMS6-16" value="" style="html=1;points=[[0,0,0,0,5],[0,1,0,0,-5],[1,0,0,0,5],[1,1,0,0,-5]];perimeter=orthogonalPerimeter;outlineConnect=0;targetShapes=umlLifeline;portConstraint=eastwest;newEdgeStyle={&quot;curved&quot;:0,&quot;rounded&quot;:0};" parent="JARyXL21HYfTaLZwsMS6-7" vertex="1">
                    <mxGeometry x="5" y="70" width="10" height="130" as="geometry"/>
                </mxCell>
                <mxCell id="JARyXL21HYfTaLZwsMS6-25" value="searchFlights(origin, destination, date, seatAmount)" style="html=1;verticalAlign=bottom;endArrow=block;curved=0;rounded=0;entryX=0;entryY=0;entryDx=0;entryDy=5;" parent="1" source="JARyXL21HYfTaLZwsMS6-7" target="JARyXL21HYfTaLZwsMS6-24" edge="1">
                    <mxGeometry x="0.0022" relative="1" as="geometry">
                        <mxPoint x="120" y="115" as="sourcePoint"/>
                        <mxPoint as="offset"/>
                    </mxGeometry>
                </mxCell>
                <mxCell id="JARyXL21HYfTaLZwsMS6-26" value="return" style="html=1;verticalAlign=bottom;endArrow=open;dashed=1;endSize=8;curved=0;rounded=0;exitX=0;exitY=1;exitDx=0;exitDy=-5;" parent="1" source="JARyXL21HYfTaLZwsMS6-24" target="JARyXL21HYfTaLZwsMS6-7" edge="1">
                    <mxGeometry relative="1" as="geometry">
                        <mxPoint x="135" y="185" as="targetPoint"/>
                    </mxGeometry>
                </mxCell>
            </root>
        </mxGraphModel>
    </diagram>
    <diagram id="HConag068iltvcdvWJDh" name="UC - Book a Flight">
        <mxGraphModel dx="1642" dy="747" grid="1" gridSize="10" guides="1" tooltips="1" connect="1" arrows="1" fold="1" page="1" pageScale="1" pageWidth="850" pageHeight="1100" math="0" shadow="0">
            <root>
                <mxCell id="0"/>
                <mxCell id="1" parent="0"/>
                <mxCell id="Nz8gwc_YmWuAiJztccDh-2" value="" style="shape=umlLifeline;perimeter=lifelinePerimeter;whiteSpace=wrap;html=1;container=1;dropTarget=0;collapsible=0;recursiveResize=0;outlineConnect=0;portConstraint=eastwest;newEdgeStyle={&quot;curved&quot;:0,&quot;rounded&quot;:0};participant=umlActor;" parent="1" vertex="1">
                    <mxGeometry x="30" y="10" width="20" height="830" as="geometry"/>
                </mxCell>
                <mxCell id="3qie7tM65b4FRI7QtyYU-1" value="" style="html=1;points=[[0,0,0,0,5],[0,1,0,0,-5],[1,0,0,0,5],[1,1,0,0,-5]];perimeter=orthogonalPerimeter;outlineConnect=0;targetShapes=umlLifeline;portConstraint=eastwest;newEdgeStyle={&quot;curved&quot;:0,&quot;rounded&quot;:0};" parent="Nz8gwc_YmWuAiJztccDh-2" vertex="1">
                    <mxGeometry x="5" y="60" width="10" height="730" as="geometry"/>
                </mxCell>
                <mxCell id="Nz8gwc_YmWuAiJztccDh-3" value=":Booking Service" style="shape=umlLifeline;perimeter=lifelinePerimeter;whiteSpace=wrap;html=1;container=1;dropTarget=0;collapsible=0;recursiveResize=0;outlineConnect=0;portConstraint=eastwest;newEdgeStyle={&quot;curved&quot;:0,&quot;rounded&quot;:0};" parent="1" vertex="1">
                    <mxGeometry x="310" y="10" width="100" height="830" as="geometry"/>
                </mxCell>
                <mxCell id="3qie7tM65b4FRI7QtyYU-2" value="" style="html=1;points=[[0,0,0,0,5],[0,1,0,0,-5],[1,0,0,0,5],[1,1,0,0,-5]];perimeter=orthogonalPerimeter;outlineConnect=0;targetShapes=umlLifeline;portConstraint=eastwest;newEdgeStyle={&quot;curved&quot;:0,&quot;rounded&quot;:0};" parent="Nz8gwc_YmWuAiJztccDh-3" vertex="1">
                    <mxGeometry x="45" y="60" width="10" height="730" as="geometry"/>
                </mxCell>
                <mxCell id="3qie7tM65b4FRI7QtyYU-12" value="" style="html=1;points=[[0,0,0,0,5],[0,1,0,0,-5],[1,0,0,0,5],[1,1,0,0,-5]];perimeter=orthogonalPerimeter;outlineConnect=0;targetShapes=umlLifeline;portConstraint=eastwest;newEdgeStyle={&quot;curved&quot;:0,&quot;rounded&quot;:0};" parent="Nz8gwc_YmWuAiJztccDh-3" vertex="1">
                    <mxGeometry x="50" y="100" width="10" height="40" as="geometry"/>
                </mxCell>
                <mxCell id="3qie7tM65b4FRI7QtyYU-13" value="create a booking" style="html=1;align=left;spacingLeft=2;endArrow=block;rounded=0;edgeStyle=orthogonalEdgeStyle;curved=0;rounded=0;" parent="Nz8gwc_YmWuAiJztccDh-3" target="3qie7tM65b4FRI7QtyYU-12" edge="1">
                    <mxGeometry x="0.0039" relative="1" as="geometry">
                        <mxPoint x="55" y="80" as="sourcePoint"/>
                        <Array as="points">
                            <mxPoint x="85" y="110"/>
                        </Array>
                        <mxPoint as="offset"/>
                    </mxGeometry>
                </mxCell>
                <mxCell id="3qie7tM65b4FRI7QtyYU-15" value="" style="html=1;points=[[0,0,0,0,5],[0,1,0,0,-5],[1,0,0,0,5],[1,1,0,0,-5]];perimeter=orthogonalPerimeter;outlineConnect=0;targetShapes=umlLifeline;portConstraint=eastwest;newEdgeStyle={&quot;curved&quot;:0,&quot;rounded&quot;:0};" parent="Nz8gwc_YmWuAiJztccDh-3" vertex="1">
                    <mxGeometry x="50" y="289" width="10" height="40" as="geometry"/>
                </mxCell>
                <mxCell id="3qie7tM65b4FRI7QtyYU-16" value="update booking status: SEAT_RESERVED" style="html=1;align=left;spacingLeft=2;endArrow=block;rounded=0;edgeStyle=orthogonalEdgeStyle;curved=0;rounded=0;" parent="Nz8gwc_YmWuAiJztccDh-3" target="3qie7tM65b4FRI7QtyYU-15" edge="1">
                    <mxGeometry x="0.0039" relative="1" as="geometry">
                        <mxPoint x="55" y="269" as="sourcePoint"/>
                        <Array as="points">
                            <mxPoint x="85" y="299"/>
                        </Array>
                        <mxPoint as="offset"/>
                    </mxGeometry>
                </mxCell>
                <mxCell id="3qie7tM65b4FRI7QtyYU-34" value="" style="html=1;points=[[0,0,0,0,5],[0,1,0,0,-5],[1,0,0,0,5],[1,1,0,0,-5]];perimeter=orthogonalPerimeter;outlineConnect=0;targetShapes=umlLifeline;portConstraint=eastwest;newEdgeStyle={&quot;curved&quot;:0,&quot;rounded&quot;:0};" parent="Nz8gwc_YmWuAiJztccDh-3" vertex="1">
                    <mxGeometry x="50" y="490" width="10" height="40" as="geometry"/>
                </mxCell>
                <mxCell id="3qie7tM65b4FRI7QtyYU-35" value="update booking status (POINTS_REDEEMED) and points redemption" style="html=1;align=left;spacingLeft=2;endArrow=block;rounded=0;edgeStyle=orthogonalEdgeStyle;curved=0;rounded=0;" parent="Nz8gwc_YmWuAiJztccDh-3" target="3qie7tM65b4FRI7QtyYU-34" edge="1">
                    <mxGeometry x="0.0039" relative="1" as="geometry">
                        <mxPoint x="55" y="470" as="sourcePoint"/>
                        <Array as="points">
                            <mxPoint x="85" y="500"/>
                        </Array>
                        <mxPoint as="offset"/>
                    </mxGeometry>
                </mxCell>
                <mxCell id="s8vCAEj1pqEE-MoRvrGC-1" value="" style="html=1;points=[[0,0,0,0,5],[0,1,0,0,-5],[1,0,0,0,5],[1,1,0,0,-5]];perimeter=orthogonalPerimeter;outlineConnect=0;targetShapes=umlLifeline;portConstraint=eastwest;newEdgeStyle={&quot;curved&quot;:0,&quot;rounded&quot;:0};" parent="Nz8gwc_YmWuAiJztccDh-3" vertex="1">
                    <mxGeometry x="50" y="670" width="10" height="40" as="geometry"/>
                </mxCell>
                <mxCell id="s8vCAEj1pqEE-MoRvrGC-2" value="update booking status (BOOKED) with payment result" style="html=1;align=left;spacingLeft=2;endArrow=block;rounded=0;edgeStyle=orthogonalEdgeStyle;curved=0;rounded=0;" parent="Nz8gwc_YmWuAiJztccDh-3" target="s8vCAEj1pqEE-MoRvrGC-1" edge="1">
                    <mxGeometry x="0.0039" relative="1" as="geometry">
                        <mxPoint x="55" y="650" as="sourcePoint"/>
                        <Array as="points">
                            <mxPoint x="85" y="680"/>
                        </Array>
                        <mxPoint as="offset"/>
                    </mxGeometry>
                </mxCell>
                <mxCell id="3qie7tM65b4FRI7QtyYU-3" value="bookFlight(flight, guests, creditCard, reward, redeemPoints)" style="html=1;verticalAlign=bottom;endArrow=block;curved=0;rounded=0;entryX=0;entryY=0;entryDx=0;entryDy=5;" parent="1" source="Nz8gwc_YmWuAiJztccDh-2" target="3qie7tM65b4FRI7QtyYU-2" edge="1">
                    <mxGeometry x="0.0018" relative="1" as="geometry">
                        <mxPoint x="165" y="75" as="sourcePoint"/>
                        <mxPoint as="offset"/>
                    </mxGeometry>
                </mxCell>
                <mxCell id="3qie7tM65b4FRI7QtyYU-5" value=":Flight Inventory Service" style="shape=umlLifeline;perimeter=lifelinePerimeter;whiteSpace=wrap;html=1;container=1;dropTarget=0;collapsible=0;recursiveResize=0;outlineConnect=0;portConstraint=eastwest;newEdgeStyle={&quot;curved&quot;:0,&quot;rounded&quot;:0};" parent="1" vertex="1">
                    <mxGeometry x="470" y="10" width="100" height="830" as="geometry"/>
                </mxCell>
                <mxCell id="3qie7tM65b4FRI7QtyYU-9" value="" style="html=1;points=[[0,0,0,0,5],[0,1,0,0,-5],[1,0,0,0,5],[1,1,0,0,-5]];perimeter=orthogonalPerimeter;outlineConnect=0;targetShapes=umlLifeline;portConstraint=eastwest;newEdgeStyle={&quot;curved&quot;:0,&quot;rounded&quot;:0};" parent="3qie7tM65b4FRI7QtyYU-5" vertex="1">
                    <mxGeometry x="45.17000000000007" y="160" width="10" height="80" as="geometry"/>
                </mxCell>
                <mxCell id="3qie7tM65b4FRI7QtyYU-29" value=":Loyalty Service" style="shape=umlLifeline;perimeter=lifelinePerimeter;whiteSpace=wrap;html=1;container=1;dropTarget=0;collapsible=0;recursiveResize=0;outlineConnect=0;portConstraint=eastwest;newEdgeStyle={&quot;curved&quot;:0,&quot;rounded&quot;:0};" parent="1" vertex="1">
                    <mxGeometry x="590" y="10" width="100" height="830" as="geometry"/>
                </mxCell>
                <mxCell id="3qie7tM65b4FRI7QtyYU-31" value="" style="html=1;points=[[0,0,0,0,5],[0,1,0,0,-5],[1,0,0,0,5],[1,1,0,0,-5]];perimeter=orthogonalPerimeter;outlineConnect=0;targetShapes=umlLifeline;portConstraint=eastwest;newEdgeStyle={&quot;curved&quot;:0,&quot;rounded&quot;:0};" parent="3qie7tM65b4FRI7QtyYU-29" vertex="1">
                    <mxGeometry x="45" y="350" width="10" height="80" as="geometry"/>
                </mxCell>
                <mxCell id="3qie7tM65b4FRI7QtyYU-32" value="redeem points(loyaltyID, price)" style="html=1;verticalAlign=bottom;endArrow=block;curved=0;rounded=0;entryX=0;entryY=0;entryDx=0;entryDy=5;" parent="1" source="Nz8gwc_YmWuAiJztccDh-3" target="3qie7tM65b4FRI7QtyYU-31" edge="1">
                    <mxGeometry relative="1" as="geometry">
                        <mxPoint x="400" y="365" as="sourcePoint"/>
                    </mxGeometry>
                </mxCell>
                <mxCell id="3qie7tM65b4FRI7QtyYU-33" value="return" style="html=1;verticalAlign=bottom;endArrow=open;dashed=1;endSize=8;curved=0;rounded=0;exitX=0;exitY=1;exitDx=0;exitDy=-5;" parent="1" source="3qie7tM65b4FRI7QtyYU-31" target="Nz8gwc_YmWuAiJztccDh-3" edge="1">
                    <mxGeometry relative="1" as="geometry">
                        <mxPoint x="645" y="435" as="targetPoint"/>
                    </mxGeometry>
                </mxCell>
                <mxCell id="EHqpsvo5T_amQT2PXfWf-1" value=":Payment Service" style="shape=umlLifeline;perimeter=lifelinePerimeter;whiteSpace=wrap;html=1;container=1;dropTarget=0;collapsible=0;recursiveResize=0;outlineConnect=0;portConstraint=eastwest;newEdgeStyle={&quot;curved&quot;:0,&quot;rounded&quot;:0};" parent="1" vertex="1">
                    <mxGeometry x="710" y="10" width="100" height="830" as="geometry"/>
                </mxCell>
                <mxCell id="EHqpsvo5T_amQT2PXfWf-6" value="" style="html=1;points=[[0,0,0,0,5],[0,1,0,0,-5],[1,0,0,0,5],[1,1,0,0,-5]];perimeter=orthogonalPerimeter;outlineConnect=0;targetShapes=umlLifeline;portConstraint=eastwest;newEdgeStyle={&quot;curved&quot;:0,&quot;rounded&quot;:0};" parent="EHqpsvo5T_amQT2PXfWf-1" vertex="1">
                    <mxGeometry x="45" y="545" width="10" height="80" as="geometry"/>
                </mxCell>
                <mxCell id="3qie7tM65b4FRI7QtyYU-11" value="return: reservationID" style="html=1;verticalAlign=bottom;endArrow=open;dashed=1;endSize=8;curved=0;rounded=0;exitX=0;exitY=1;exitDx=0;exitDy=-5;" parent="1" source="3qie7tM65b4FRI7QtyYU-9" target="3qie7tM65b4FRI7QtyYU-2" edge="1">
                    <mxGeometry relative="1" as="geometry">
                        <mxPoint x="357.00333333333356" y="245" as="targetPoint"/>
                    </mxGeometry>
                </mxCell>
                <mxCell id="3qie7tM65b4FRI7QtyYU-10" value="bookFlight(flight, seats)" style="html=1;verticalAlign=bottom;endArrow=block;curved=0;rounded=0;entryX=0;entryY=0;entryDx=0;entryDy=5;" parent="1" source="3qie7tM65b4FRI7QtyYU-2" target="3qie7tM65b4FRI7QtyYU-9" edge="1">
                    <mxGeometry x="0.0033" relative="1" as="geometry">
                        <mxPoint x="370" y="175" as="sourcePoint"/>
                        <mxPoint as="offset"/>
                    </mxGeometry>
                </mxCell>
                <mxCell id="EHqpsvo5T_amQT2PXfWf-7" value="payment(amountPayable)" style="html=1;verticalAlign=bottom;endArrow=block;curved=0;rounded=0;entryX=0;entryY=0;entryDx=0;entryDy=5;" parent="1" source="Nz8gwc_YmWuAiJztccDh-3" target="EHqpsvo5T_amQT2PXfWf-6" edge="1">
                    <mxGeometry x="-0.0013" relative="1" as="geometry">
                        <mxPoint x="685" y="560" as="sourcePoint"/>
                        <mxPoint as="offset"/>
                    </mxGeometry>
                </mxCell>
                <mxCell id="EHqpsvo5T_amQT2PXfWf-8" value="return: payment" style="html=1;verticalAlign=bottom;endArrow=open;dashed=1;endSize=8;curved=0;rounded=0;exitX=0;exitY=1;exitDx=0;exitDy=-5;" parent="1" source="EHqpsvo5T_amQT2PXfWf-6" target="Nz8gwc_YmWuAiJztccDh-3" edge="1">
                    <mxGeometry x="-0.0013" relative="1" as="geometry">
                        <mxPoint x="685" y="630" as="targetPoint"/>
                        <mxPoint as="offset"/>
                    </mxGeometry>
                </mxCell>
                <mxCell id="s8vCAEj1pqEE-MoRvrGC-3" value="return" style="html=1;verticalAlign=bottom;endArrow=open;dashed=1;endSize=8;curved=0;rounded=0;" parent="1" edge="1">
                    <mxGeometry relative="1" as="geometry">
                        <mxPoint x="39.83333333333326" y="770" as="targetPoint"/>
                        <mxPoint x="355" y="770" as="sourcePoint"/>
                    </mxGeometry>
                </mxCell>
            </root>
        </mxGraphModel>
    </diagram>
    <diagram id="ULMjAhx-9nf5IcbBUwTD" name="UC - Cancel a Booking">
        <mxGraphModel dx="1642" dy="747" grid="1" gridSize="10" guides="1" tooltips="1" connect="1" arrows="1" fold="1" page="1" pageScale="1" pageWidth="850" pageHeight="1100" math="0" shadow="0">
            <root>
                <mxCell id="0"/>
                <mxCell id="1" parent="0"/>
                <mxCell id="kOUR9KfMv5OtSywQTJcz-1" value="" style="shape=umlLifeline;perimeter=lifelinePerimeter;whiteSpace=wrap;html=1;container=1;dropTarget=0;collapsible=0;recursiveResize=0;outlineConnect=0;portConstraint=eastwest;newEdgeStyle={&quot;curved&quot;:0,&quot;rounded&quot;:0};participant=umlActor;" parent="1" vertex="1">
                    <mxGeometry x="30" y="10" width="20" height="720" as="geometry"/>
                </mxCell>
                <mxCell id="kOUR9KfMv5OtSywQTJcz-3" value="" style="html=1;points=[[0,0,0,0,5],[0,1,0,0,-5],[1,0,0,0,5],[1,1,0,0,-5]];perimeter=orthogonalPerimeter;outlineConnect=0;targetShapes=umlLifeline;portConstraint=eastwest;newEdgeStyle={&quot;curved&quot;:0,&quot;rounded&quot;:0};" parent="kOUR9KfMv5OtSywQTJcz-1" vertex="1">
                    <mxGeometry x="5" y="60" width="10" height="640" as="geometry"/>
                </mxCell>
                <mxCell id="kOUR9KfMv5OtSywQTJcz-2" value=":Booking Service" style="shape=umlLifeline;perimeter=lifelinePerimeter;whiteSpace=wrap;html=1;container=1;dropTarget=0;collapsible=0;recursiveResize=0;outlineConnect=0;portConstraint=eastwest;newEdgeStyle={&quot;curved&quot;:0,&quot;rounded&quot;:0};" parent="1" vertex="1">
                    <mxGeometry x="183" y="10" width="100" height="720" as="geometry"/>
                </mxCell>
                <mxCell id="kOUR9KfMv5OtSywQTJcz-4" value="" style="html=1;points=[[0,0,0,0,5],[0,1,0,0,-5],[1,0,0,0,5],[1,1,0,0,-5]];perimeter=orthogonalPerimeter;outlineConnect=0;targetShapes=umlLifeline;portConstraint=eastwest;newEdgeStyle={&quot;curved&quot;:0,&quot;rounded&quot;:0};" parent="kOUR9KfMv5OtSywQTJcz-2" vertex="1">
                    <mxGeometry x="45" y="60" width="10" height="640" as="geometry"/>
                </mxCell>
                <mxCell id="WQACFaTPLgGkG3ACCErD-9" value="" style="html=1;points=[[0,0,0,0,5],[0,1,0,0,-5],[1,0,0,0,5],[1,1,0,0,-5]];perimeter=orthogonalPerimeter;outlineConnect=0;targetShapes=umlLifeline;portConstraint=eastwest;newEdgeStyle={&quot;curved&quot;:0,&quot;rounded&quot;:0};" parent="kOUR9KfMv5OtSywQTJcz-2" vertex="1">
                    <mxGeometry x="50" y="100" width="10" height="40" as="geometry"/>
                </mxCell>
                <mxCell id="WQACFaTPLgGkG3ACCErD-10" value="find booking and update status: CANCELLING" style="html=1;align=left;spacingLeft=2;endArrow=block;rounded=0;edgeStyle=orthogonalEdgeStyle;curved=0;rounded=0;" parent="kOUR9KfMv5OtSywQTJcz-2" target="WQACFaTPLgGkG3ACCErD-9" edge="1">
                    <mxGeometry x="0.0039" relative="1" as="geometry">
                        <mxPoint x="55" y="80" as="sourcePoint"/>
                        <Array as="points">
                            <mxPoint x="85" y="110"/>
                        </Array>
                        <mxPoint as="offset"/>
                    </mxGeometry>
                </mxCell>
                <mxCell id="tKHBSuLI3nLEsnj8kGMc-1" value="" style="html=1;points=[[0,0,0,0,5],[0,1,0,0,-5],[1,0,0,0,5],[1,1,0,0,-5]];perimeter=orthogonalPerimeter;outlineConnect=0;targetShapes=umlLifeline;portConstraint=eastwest;newEdgeStyle={&quot;curved&quot;:0,&quot;rounded&quot;:0};" parent="kOUR9KfMv5OtSywQTJcz-2" vertex="1">
                    <mxGeometry x="50" y="285" width="10" height="40" as="geometry"/>
                </mxCell>
                <mxCell id="tKHBSuLI3nLEsnj8kGMc-2" value="update booking status: REFUNDED" style="html=1;align=left;spacingLeft=2;endArrow=block;rounded=0;edgeStyle=orthogonalEdgeStyle;curved=0;rounded=0;" parent="kOUR9KfMv5OtSywQTJcz-2" target="tKHBSuLI3nLEsnj8kGMc-1" edge="1">
                    <mxGeometry x="0.0039" relative="1" as="geometry">
                        <mxPoint x="55" y="265" as="sourcePoint"/>
                        <Array as="points">
                            <mxPoint x="85" y="295"/>
                        </Array>
                        <mxPoint as="offset"/>
                    </mxGeometry>
                </mxCell>
                <mxCell id="fNx7PZbKT5-hQeuyXZch-6" value="" style="html=1;points=[[0,0,0,0,5],[0,1,0,0,-5],[1,0,0,0,5],[1,1,0,0,-5]];perimeter=orthogonalPerimeter;outlineConnect=0;targetShapes=umlLifeline;portConstraint=eastwest;newEdgeStyle={&quot;curved&quot;:0,&quot;rounded&quot;:0};" parent="kOUR9KfMv5OtSywQTJcz-2" vertex="1">
                    <mxGeometry x="50" y="472" width="10" height="40" as="geometry"/>
                </mxCell>
                <mxCell id="fNx7PZbKT5-hQeuyXZch-7" value="update booking status: POINTS_RETURNED" style="html=1;align=left;spacingLeft=2;endArrow=block;rounded=0;edgeStyle=orthogonalEdgeStyle;curved=0;rounded=0;" parent="kOUR9KfMv5OtSywQTJcz-2" target="fNx7PZbKT5-hQeuyXZch-6" edge="1">
                    <mxGeometry relative="1" as="geometry">
                        <mxPoint x="55" y="452" as="sourcePoint"/>
                        <Array as="points">
                            <mxPoint x="85" y="482"/>
                        </Array>
                    </mxGeometry>
                </mxCell>
                <mxCell id="fNx7PZbKT5-hQeuyXZch-8" value="" style="html=1;points=[[0,0,0,0,5],[0,1,0,0,-5],[1,0,0,0,5],[1,1,0,0,-5]];perimeter=orthogonalPerimeter;outlineConnect=0;targetShapes=umlLifeline;portConstraint=eastwest;newEdgeStyle={&quot;curved&quot;:0,&quot;rounded&quot;:0};" parent="kOUR9KfMv5OtSywQTJcz-2" vertex="1">
                    <mxGeometry x="50" y="650" width="10" height="40" as="geometry"/>
                </mxCell>
                <mxCell id="fNx7PZbKT5-hQeuyXZch-9" value="update booking status: CANCELLED" style="html=1;align=left;spacingLeft=2;endArrow=block;rounded=0;edgeStyle=orthogonalEdgeStyle;curved=0;rounded=0;" parent="kOUR9KfMv5OtSywQTJcz-2" target="fNx7PZbKT5-hQeuyXZch-8" edge="1">
                    <mxGeometry relative="1" as="geometry">
                        <mxPoint x="55" y="630" as="sourcePoint"/>
                        <Array as="points">
                            <mxPoint x="85" y="660"/>
                        </Array>
                    </mxGeometry>
                </mxCell>
                <mxCell id="kOUR9KfMv5OtSywQTJcz-5" value="cancelBooking(referenceNumber)" style="html=1;verticalAlign=bottom;endArrow=block;curved=0;rounded=0;entryX=0;entryY=0;entryDx=0;entryDy=5;exitX=1;exitY=0;exitDx=0;exitDy=5;exitPerimeter=0;" parent="1" source="kOUR9KfMv5OtSywQTJcz-3" target="kOUR9KfMv5OtSywQTJcz-4" edge="1">
                    <mxGeometry relative="1" as="geometry">
                        <mxPoint x="140" y="75" as="sourcePoint"/>
                        <mxPoint as="offset"/>
                    </mxGeometry>
                </mxCell>
                <mxCell id="WQACFaTPLgGkG3ACCErD-1" value=":Payment Service" style="shape=umlLifeline;perimeter=lifelinePerimeter;whiteSpace=wrap;html=1;container=1;dropTarget=0;collapsible=0;recursiveResize=0;outlineConnect=0;portConstraint=eastwest;newEdgeStyle={&quot;curved&quot;:0,&quot;rounded&quot;:0};" parent="1" vertex="1">
                    <mxGeometry x="376" y="10" width="100" height="720" as="geometry"/>
                </mxCell>
                <mxCell id="r248HvHPLnnBdFEPct5p-1" value="" style="html=1;points=[[0,0,0,0,5],[0,1,0,0,-5],[1,0,0,0,5],[1,1,0,0,-5]];perimeter=orthogonalPerimeter;outlineConnect=0;targetShapes=umlLifeline;portConstraint=eastwest;newEdgeStyle={&quot;curved&quot;:0,&quot;rounded&quot;:0};" parent="WQACFaTPLgGkG3ACCErD-1" vertex="1">
                    <mxGeometry x="44" y="160" width="10" height="80" as="geometry"/>
                </mxCell>
                <mxCell id="r248HvHPLnnBdFEPct5p-2" value="refund(paymentId)" style="html=1;verticalAlign=bottom;endArrow=block;curved=0;rounded=0;entryX=0;entryY=0;entryDx=0;entryDy=5;" parent="1" source="kOUR9KfMv5OtSywQTJcz-2" target="r248HvHPLnnBdFEPct5p-1" edge="1">
                    <mxGeometry relative="1" as="geometry">
                        <mxPoint x="350" y="175" as="sourcePoint"/>
                    </mxGeometry>
                </mxCell>
                <mxCell id="r248HvHPLnnBdFEPct5p-3" value="return: payment" style="html=1;verticalAlign=bottom;endArrow=open;dashed=1;endSize=8;curved=0;rounded=0;exitX=0;exitY=1;exitDx=0;exitDy=-5;" parent="1" source="r248HvHPLnnBdFEPct5p-1" target="kOUR9KfMv5OtSywQTJcz-2" edge="1">
                    <mxGeometry relative="1" as="geometry">
                        <mxPoint x="350" y="245" as="targetPoint"/>
                    </mxGeometry>
                </mxCell>
                <mxCell id="tKHBSuLI3nLEsnj8kGMc-3" value=":Loyalty Service" style="shape=umlLifeline;perimeter=lifelinePerimeter;whiteSpace=wrap;html=1;container=1;dropTarget=0;collapsible=0;recursiveResize=0;outlineConnect=0;portConstraint=eastwest;newEdgeStyle={&quot;curved&quot;:0,&quot;rounded&quot;:0};" parent="1" vertex="1">
                    <mxGeometry x="510" y="10" width="100" height="720" as="geometry"/>
                </mxCell>
                <mxCell id="tKHBSuLI3nLEsnj8kGMc-4" value="" style="html=1;points=[[0,0,0,0,5],[0,1,0,0,-5],[1,0,0,0,5],[1,1,0,0,-5]];perimeter=orthogonalPerimeter;outlineConnect=0;targetShapes=umlLifeline;portConstraint=eastwest;newEdgeStyle={&quot;curved&quot;:0,&quot;rounded&quot;:0};" parent="tKHBSuLI3nLEsnj8kGMc-3" vertex="1">
                    <mxGeometry x="45" y="350" width="10" height="80" as="geometry"/>
                </mxCell>
                <mxCell id="tKHBSuLI3nLEsnj8kGMc-5" value="returnPoint(points)" style="html=1;verticalAlign=bottom;endArrow=block;curved=0;rounded=0;entryX=0;entryY=0;entryDx=0;entryDy=5;" parent="1" source="kOUR9KfMv5OtSywQTJcz-2" target="tKHBSuLI3nLEsnj8kGMc-4" edge="1">
                    <mxGeometry x="-0.2726" y="5" relative="1" as="geometry">
                        <mxPoint x="485" y="365" as="sourcePoint"/>
                        <mxPoint as="offset"/>
                    </mxGeometry>
                </mxCell>
                <mxCell id="tKHBSuLI3nLEsnj8kGMc-6" value="return" style="html=1;verticalAlign=bottom;endArrow=open;dashed=1;endSize=8;curved=0;rounded=0;exitX=0;exitY=1;exitDx=0;exitDy=-5;" parent="1" source="tKHBSuLI3nLEsnj8kGMc-4" target="kOUR9KfMv5OtSywQTJcz-2" edge="1">
                    <mxGeometry relative="1" as="geometry">
                        <mxPoint x="485" y="435" as="targetPoint"/>
                    </mxGeometry>
                </mxCell>
                <mxCell id="fNx7PZbKT5-hQeuyXZch-1" value=":Flight Inventory Service" style="shape=umlLifeline;perimeter=lifelinePerimeter;whiteSpace=wrap;html=1;container=1;dropTarget=0;collapsible=0;recursiveResize=0;outlineConnect=0;portConstraint=eastwest;newEdgeStyle={&quot;curved&quot;:0,&quot;rounded&quot;:0};" parent="1" vertex="1">
                    <mxGeometry x="640" y="10" width="100" height="720" as="geometry"/>
                </mxCell>
                <mxCell id="fNx7PZbKT5-hQeuyXZch-3" value="" style="html=1;points=[[0,0,0,0,5],[0,1,0,0,-5],[1,0,0,0,5],[1,1,0,0,-5]];perimeter=orthogonalPerimeter;outlineConnect=0;targetShapes=umlLifeline;portConstraint=eastwest;newEdgeStyle={&quot;curved&quot;:0,&quot;rounded&quot;:0};" parent="fNx7PZbKT5-hQeuyXZch-1" vertex="1">
                    <mxGeometry x="45" y="526" width="10" height="80" as="geometry"/>
                </mxCell>
                <mxCell id="fNx7PZbKT5-hQeuyXZch-4" value="cancelReservation(reservationID)" style="html=1;verticalAlign=bottom;endArrow=block;curved=0;rounded=0;entryX=0;entryY=0;entryDx=0;entryDy=5;" parent="1" target="fNx7PZbKT5-hQeuyXZch-3" edge="1">
                    <mxGeometry relative="1" as="geometry">
                        <mxPoint x="232.83333333333348" y="541" as="sourcePoint"/>
                    </mxGeometry>
                </mxCell>
                <mxCell id="fNx7PZbKT5-hQeuyXZch-5" value="return" style="html=1;verticalAlign=bottom;endArrow=open;dashed=1;endSize=8;curved=0;rounded=0;exitX=0;exitY=1;exitDx=0;exitDy=-5;" parent="1" source="fNx7PZbKT5-hQeuyXZch-3" edge="1">
                    <mxGeometry relative="1" as="geometry">
                        <mxPoint x="232.83333333333348" y="611" as="targetPoint"/>
                    </mxGeometry>
                </mxCell>
                <mxCell id="kOUR9KfMv5OtSywQTJcz-6" value="return" style="html=1;verticalAlign=bottom;endArrow=open;dashed=1;endSize=8;curved=0;rounded=0;exitX=0;exitY=1;exitDx=0;exitDy=-5;" parent="1" source="kOUR9KfMv5OtSywQTJcz-4" target="kOUR9KfMv5OtSywQTJcz-1" edge="1">
                    <mxGeometry relative="1" as="geometry">
                        <mxPoint x="80" y="535" as="targetPoint"/>
                    </mxGeometry>
                </mxCell>
            </root>
        </mxGraphModel>
    </diagram>
    <diagram id="DuKrxHtnO2-D-_nvOAtp" name="UC - Get Booking by Reference Number">
        <mxGraphModel dx="1642" dy="747" grid="1" gridSize="10" guides="1" tooltips="1" connect="1" arrows="1" fold="1" page="1" pageScale="1" pageWidth="850" pageHeight="1100" math="0" shadow="0">
            <root>
                <mxCell id="0"/>
                <mxCell id="1" parent="0"/>
                <mxCell id="Ao4LIYzpyU1ZD_r6EhtB-1" value="" style="shape=umlLifeline;perimeter=lifelinePerimeter;whiteSpace=wrap;html=1;container=1;dropTarget=0;collapsible=0;recursiveResize=0;outlineConnect=0;portConstraint=eastwest;newEdgeStyle={&quot;curved&quot;:0,&quot;rounded&quot;:0};participant=umlActor;" parent="1" vertex="1">
                    <mxGeometry x="30" y="10" width="20" height="300" as="geometry"/>
                </mxCell>
                <mxCell id="f8IRBAuifUgLCdhqDWVv-1" value="" style="html=1;points=[[0,0,0,0,5],[0,1,0,0,-5],[1,0,0,0,5],[1,1,0,0,-5]];perimeter=orthogonalPerimeter;outlineConnect=0;targetShapes=umlLifeline;portConstraint=eastwest;newEdgeStyle={&quot;curved&quot;:0,&quot;rounded&quot;:0};" parent="Ao4LIYzpyU1ZD_r6EhtB-1" vertex="1">
                    <mxGeometry x="5" y="70" width="10" height="110" as="geometry"/>
                </mxCell>
                <mxCell id="Ao4LIYzpyU1ZD_r6EhtB-2" value=":Booking Service" style="shape=umlLifeline;perimeter=lifelinePerimeter;whiteSpace=wrap;html=1;container=1;dropTarget=0;collapsible=0;recursiveResize=0;outlineConnect=0;portConstraint=eastwest;newEdgeStyle={&quot;curved&quot;:0,&quot;rounded&quot;:0};" parent="1" vertex="1">
                    <mxGeometry x="150" y="10" width="100" height="300" as="geometry"/>
                </mxCell>
                <mxCell id="f8IRBAuifUgLCdhqDWVv-2" value="" style="html=1;points=[[0,0,0,0,5],[0,1,0,0,-5],[1,0,0,0,5],[1,1,0,0,-5]];perimeter=orthogonalPerimeter;outlineConnect=0;targetShapes=umlLifeline;portConstraint=eastwest;newEdgeStyle={&quot;curved&quot;:0,&quot;rounded&quot;:0};" parent="Ao4LIYzpyU1ZD_r6EhtB-2" vertex="1">
                    <mxGeometry x="45" y="69" width="10" height="111" as="geometry"/>
                </mxCell>
                <mxCell id="icvayixprar7WBmATfKK-1" value="" style="html=1;points=[[0,0,0,0,5],[0,1,0,0,-5],[1,0,0,0,5],[1,1,0,0,-5]];perimeter=orthogonalPerimeter;outlineConnect=0;targetShapes=umlLifeline;portConstraint=eastwest;newEdgeStyle={&quot;curved&quot;:0,&quot;rounded&quot;:0};" parent="Ao4LIYzpyU1ZD_r6EhtB-2" vertex="1">
                    <mxGeometry x="50" y="120" width="10" height="40" as="geometry"/>
                </mxCell>
                <mxCell id="icvayixprar7WBmATfKK-2" value="find booking by ID" style="html=1;align=left;spacingLeft=2;endArrow=block;rounded=0;edgeStyle=orthogonalEdgeStyle;curved=0;rounded=0;" parent="Ao4LIYzpyU1ZD_r6EhtB-2" target="icvayixprar7WBmATfKK-1" edge="1">
                    <mxGeometry relative="1" as="geometry">
                        <mxPoint x="55" y="100" as="sourcePoint"/>
                        <Array as="points">
                            <mxPoint x="85" y="130"/>
                        </Array>
                    </mxGeometry>
                </mxCell>
                <mxCell id="f8IRBAuifUgLCdhqDWVv-3" value="getBooking(number)" style="html=1;verticalAlign=bottom;endArrow=block;curved=0;rounded=0;entryX=0;entryY=0;entryDx=0;entryDy=5;" parent="1" source="Ao4LIYzpyU1ZD_r6EhtB-1" target="f8IRBAuifUgLCdhqDWVv-2" edge="1">
                    <mxGeometry relative="1" as="geometry">
                        <mxPoint x="125" y="84" as="sourcePoint"/>
                    </mxGeometry>
                </mxCell>
                <mxCell id="f8IRBAuifUgLCdhqDWVv-4" value="return: booking" style="html=1;verticalAlign=bottom;endArrow=open;dashed=1;endSize=8;curved=0;rounded=0;exitX=0;exitY=1;exitDx=0;exitDy=-5;" parent="1" source="f8IRBAuifUgLCdhqDWVv-2" target="Ao4LIYzpyU1ZD_r6EhtB-1" edge="1">
                    <mxGeometry relative="1" as="geometry">
                        <mxPoint x="125" y="154" as="targetPoint"/>
                    </mxGeometry>
                </mxCell>
            </root>
        </mxGraphModel>
    </diagram>
    <diagram id="Aex0PBQqQa0PzQ3rmbcv" name="UC - Get Bookings by Name">
        <mxGraphModel dx="1642" dy="747" grid="1" gridSize="10" guides="1" tooltips="1" connect="1" arrows="1" fold="1" page="1" pageScale="1" pageWidth="850" pageHeight="1100" math="0" shadow="0">
            <root>
                <mxCell id="0"/>
                <mxCell id="1" parent="0"/>
                <mxCell id="iFsMQ8S1VoZaKDIf7sN7-1" value="" style="shape=umlLifeline;perimeter=lifelinePerimeter;whiteSpace=wrap;html=1;container=1;dropTarget=0;collapsible=0;recursiveResize=0;outlineConnect=0;portConstraint=eastwest;newEdgeStyle={&quot;curved&quot;:0,&quot;rounded&quot;:0};participant=umlActor;" parent="1" vertex="1">
                    <mxGeometry x="30" y="10" width="20" height="300" as="geometry"/>
                </mxCell>
                <mxCell id="iFsMQ8S1VoZaKDIf7sN7-2" value="" style="html=1;points=[[0,0,0,0,5],[0,1,0,0,-5],[1,0,0,0,5],[1,1,0,0,-5]];perimeter=orthogonalPerimeter;outlineConnect=0;targetShapes=umlLifeline;portConstraint=eastwest;newEdgeStyle={&quot;curved&quot;:0,&quot;rounded&quot;:0};" parent="iFsMQ8S1VoZaKDIf7sN7-1" vertex="1">
                    <mxGeometry x="5" y="70" width="10" height="110" as="geometry"/>
                </mxCell>
                <mxCell id="iFsMQ8S1VoZaKDIf7sN7-3" value=":Booking Service" style="shape=umlLifeline;perimeter=lifelinePerimeter;whiteSpace=wrap;html=1;container=1;dropTarget=0;collapsible=0;recursiveResize=0;outlineConnect=0;portConstraint=eastwest;newEdgeStyle={&quot;curved&quot;:0,&quot;rounded&quot;:0};" parent="1" vertex="1">
                    <mxGeometry x="196" y="10" width="100" height="300" as="geometry"/>
                </mxCell>
                <mxCell id="iFsMQ8S1VoZaKDIf7sN7-4" value="" style="html=1;points=[[0,0,0,0,5],[0,1,0,0,-5],[1,0,0,0,5],[1,1,0,0,-5]];perimeter=orthogonalPerimeter;outlineConnect=0;targetShapes=umlLifeline;portConstraint=eastwest;newEdgeStyle={&quot;curved&quot;:0,&quot;rounded&quot;:0};" parent="iFsMQ8S1VoZaKDIf7sN7-3" vertex="1">
                    <mxGeometry x="45" y="69" width="10" height="111" as="geometry"/>
                </mxCell>
                <mxCell id="iFsMQ8S1VoZaKDIf7sN7-5" value="" style="html=1;points=[[0,0,0,0,5],[0,1,0,0,-5],[1,0,0,0,5],[1,1,0,0,-5]];perimeter=orthogonalPerimeter;outlineConnect=0;targetShapes=umlLifeline;portConstraint=eastwest;newEdgeStyle={&quot;curved&quot;:0,&quot;rounded&quot;:0};" parent="iFsMQ8S1VoZaKDIf7sN7-3" vertex="1">
                    <mxGeometry x="50" y="120" width="10" height="40" as="geometry"/>
                </mxCell>
                <mxCell id="iFsMQ8S1VoZaKDIf7sN7-6" value="find bookings by name" style="html=1;align=left;spacingLeft=2;endArrow=block;rounded=0;edgeStyle=orthogonalEdgeStyle;curved=0;rounded=0;" parent="iFsMQ8S1VoZaKDIf7sN7-3" target="iFsMQ8S1VoZaKDIf7sN7-5" edge="1">
                    <mxGeometry x="-0.0033" relative="1" as="geometry">
                        <mxPoint x="55" y="100" as="sourcePoint"/>
                        <Array as="points">
                            <mxPoint x="85" y="130"/>
                        </Array>
                        <mxPoint as="offset"/>
                    </mxGeometry>
                </mxCell>
                <mxCell id="iFsMQ8S1VoZaKDIf7sN7-7" value="getBookings(firstName, lastName)" style="html=1;verticalAlign=bottom;endArrow=block;curved=0;rounded=0;entryX=0;entryY=0;entryDx=0;entryDy=5;" parent="1" source="iFsMQ8S1VoZaKDIf7sN7-1" target="iFsMQ8S1VoZaKDIf7sN7-4" edge="1">
                    <mxGeometry relative="1" as="geometry">
                        <mxPoint x="125" y="84" as="sourcePoint"/>
                    </mxGeometry>
                </mxCell>
                <mxCell id="iFsMQ8S1VoZaKDIf7sN7-8" value="return: bookings" style="html=1;verticalAlign=bottom;endArrow=open;dashed=1;endSize=8;curved=0;rounded=0;exitX=0;exitY=1;exitDx=0;exitDy=-5;" parent="1" source="iFsMQ8S1VoZaKDIf7sN7-4" target="iFsMQ8S1VoZaKDIf7sN7-1" edge="1">
                    <mxGeometry relative="1" as="geometry">
                        <mxPoint x="125" y="154" as="targetPoint"/>
                    </mxGeometry>
                </mxCell>
            </root>
        </mxGraphModel>
    </diagram>
    <diagram name="UC - Get Bookings by Loyalty ID" id="BCDl5qq88eCi6povVDOD">
        <mxGraphModel dx="1642" dy="747" grid="1" gridSize="10" guides="1" tooltips="1" connect="1" arrows="1" fold="1" page="1" pageScale="1" pageWidth="850" pageHeight="1100" math="0" shadow="0">
            <root>
                <mxCell id="3yVTuoR57yPoWjV6KtZC-0"/>
                <mxCell id="3yVTuoR57yPoWjV6KtZC-1" parent="3yVTuoR57yPoWjV6KtZC-0"/>
                <mxCell id="3yVTuoR57yPoWjV6KtZC-2" value="" style="shape=umlLifeline;perimeter=lifelinePerimeter;whiteSpace=wrap;html=1;container=1;dropTarget=0;collapsible=0;recursiveResize=0;outlineConnect=0;portConstraint=eastwest;newEdgeStyle={&quot;curved&quot;:0,&quot;rounded&quot;:0};participant=umlActor;" parent="3yVTuoR57yPoWjV6KtZC-1" vertex="1">
                    <mxGeometry x="30" y="10" width="20" height="300" as="geometry"/>
                </mxCell>
                <mxCell id="3yVTuoR57yPoWjV6KtZC-3" value="" style="html=1;points=[[0,0,0,0,5],[0,1,0,0,-5],[1,0,0,0,5],[1,1,0,0,-5]];perimeter=orthogonalPerimeter;outlineConnect=0;targetShapes=umlLifeline;portConstraint=eastwest;newEdgeStyle={&quot;curved&quot;:0,&quot;rounded&quot;:0};" parent="3yVTuoR57yPoWjV6KtZC-2" vertex="1">
                    <mxGeometry x="5" y="70" width="10" height="110" as="geometry"/>
                </mxCell>
                <mxCell id="3yVTuoR57yPoWjV6KtZC-4" value=":Booking Service" style="shape=umlLifeline;perimeter=lifelinePerimeter;whiteSpace=wrap;html=1;container=1;dropTarget=0;collapsible=0;recursiveResize=0;outlineConnect=0;portConstraint=eastwest;newEdgeStyle={&quot;curved&quot;:0,&quot;rounded&quot;:0};" parent="3yVTuoR57yPoWjV6KtZC-1" vertex="1">
                    <mxGeometry x="175" y="10" width="100" height="300" as="geometry"/>
                </mxCell>
                <mxCell id="3yVTuoR57yPoWjV6KtZC-5" value="" style="html=1;points=[[0,0,0,0,5],[0,1,0,0,-5],[1,0,0,0,5],[1,1,0,0,-5]];perimeter=orthogonalPerimeter;outlineConnect=0;targetShapes=umlLifeline;portConstraint=eastwest;newEdgeStyle={&quot;curved&quot;:0,&quot;rounded&quot;:0};" parent="3yVTuoR57yPoWjV6KtZC-4" vertex="1">
                    <mxGeometry x="45" y="69" width="10" height="111" as="geometry"/>
                </mxCell>
                <mxCell id="3yVTuoR57yPoWjV6KtZC-6" value="" style="html=1;points=[[0,0,0,0,5],[0,1,0,0,-5],[1,0,0,0,5],[1,1,0,0,-5]];perimeter=orthogonalPerimeter;outlineConnect=0;targetShapes=umlLifeline;portConstraint=eastwest;newEdgeStyle={&quot;curved&quot;:0,&quot;rounded&quot;:0};" parent="3yVTuoR57yPoWjV6KtZC-4" vertex="1">
                    <mxGeometry x="50" y="120" width="10" height="40" as="geometry"/>
                </mxCell>
                <mxCell id="3yVTuoR57yPoWjV6KtZC-7" value="find bookings by loyalty ID" style="html=1;align=left;spacingLeft=2;endArrow=block;rounded=0;edgeStyle=orthogonalEdgeStyle;curved=0;rounded=0;" parent="3yVTuoR57yPoWjV6KtZC-4" target="3yVTuoR57yPoWjV6KtZC-6" edge="1">
                    <mxGeometry x="-0.0033" relative="1" as="geometry">
                        <mxPoint x="55" y="100" as="sourcePoint"/>
                        <Array as="points">
                            <mxPoint x="85" y="130"/>
                        </Array>
                        <mxPoint as="offset"/>
                    </mxGeometry>
                </mxCell>
                <mxCell id="3yVTuoR57yPoWjV6KtZC-8" value="getBookings(loyaltyID)" style="html=1;verticalAlign=bottom;endArrow=block;curved=0;rounded=0;entryX=0;entryY=0;entryDx=0;entryDy=5;" parent="3yVTuoR57yPoWjV6KtZC-1" source="3yVTuoR57yPoWjV6KtZC-2" target="3yVTuoR57yPoWjV6KtZC-5" edge="1">
                    <mxGeometry x="0.0028" relative="1" as="geometry">
                        <mxPoint x="125" y="84" as="sourcePoint"/>
                        <mxPoint as="offset"/>
                    </mxGeometry>
                </mxCell>
                <mxCell id="3yVTuoR57yPoWjV6KtZC-9" value="return: bookings" style="html=1;verticalAlign=bottom;endArrow=open;dashed=1;endSize=8;curved=0;rounded=0;exitX=0;exitY=1;exitDx=0;exitDy=-5;" parent="3yVTuoR57yPoWjV6KtZC-1" source="3yVTuoR57yPoWjV6KtZC-5" target="3yVTuoR57yPoWjV6KtZC-2" edge="1">
                    <mxGeometry relative="1" as="geometry">
                        <mxPoint x="125" y="154" as="targetPoint"/>
                    </mxGeometry>
                </mxCell>
            </root>
        </mxGraphModel>
    </diagram>
    <diagram id="iGSOfmBBXb7mO_DQgz3w" name="Get Loyalty Profile">
        <mxGraphModel dx="1642" dy="747" grid="1" gridSize="10" guides="1" tooltips="1" connect="1" arrows="1" fold="1" page="1" pageScale="1" pageWidth="850" pageHeight="1100" math="0" shadow="0">
            <root>
                <mxCell id="0"/>
                <mxCell id="1" parent="0"/>
                <mxCell id="qvjyN7jZhLFj0nZozjp7-1" value="" style="shape=umlLifeline;perimeter=lifelinePerimeter;whiteSpace=wrap;html=1;container=1;dropTarget=0;collapsible=0;recursiveResize=0;outlineConnect=0;portConstraint=eastwest;newEdgeStyle={&quot;curved&quot;:0,&quot;rounded&quot;:0};participant=umlActor;" parent="1" vertex="1">
                    <mxGeometry x="30" y="10" width="20" height="300" as="geometry"/>
                </mxCell>
                <mxCell id="qvjyN7jZhLFj0nZozjp7-6" value="" style="html=1;points=[[0,0,0,0,5],[0,1,0,0,-5],[1,0,0,0,5],[1,1,0,0,-5]];perimeter=orthogonalPerimeter;outlineConnect=0;targetShapes=umlLifeline;portConstraint=eastwest;newEdgeStyle={&quot;curved&quot;:0,&quot;rounded&quot;:0};" parent="qvjyN7jZhLFj0nZozjp7-1" vertex="1">
                    <mxGeometry x="5" y="70" width="10" height="120" as="geometry"/>
                </mxCell>
                <mxCell id="qvjyN7jZhLFj0nZozjp7-2" value=":Loyalty Service" style="shape=umlLifeline;perimeter=lifelinePerimeter;whiteSpace=wrap;html=1;container=1;dropTarget=0;collapsible=0;recursiveResize=0;outlineConnect=0;portConstraint=eastwest;newEdgeStyle={&quot;curved&quot;:0,&quot;rounded&quot;:0};" parent="1" vertex="1">
                    <mxGeometry x="140" y="10" width="100" height="300" as="geometry"/>
                </mxCell>
                <mxCell id="qvjyN7jZhLFj0nZozjp7-3" value="" style="html=1;points=[[0,0,0,0,5],[0,1,0,0,-5],[1,0,0,0,5],[1,1,0,0,-5]];perimeter=orthogonalPerimeter;outlineConnect=0;targetShapes=umlLifeline;portConstraint=eastwest;newEdgeStyle={&quot;curved&quot;:0,&quot;rounded&quot;:0};" parent="qvjyN7jZhLFj0nZozjp7-2" vertex="1">
                    <mxGeometry x="45" y="70" width="10" height="110" as="geometry"/>
                </mxCell>
                <mxCell id="qvjyN7jZhLFj0nZozjp7-7" value="" style="html=1;points=[[0,0,0,0,5],[0,1,0,0,-5],[1,0,0,0,5],[1,1,0,0,-5]];perimeter=orthogonalPerimeter;outlineConnect=0;targetShapes=umlLifeline;portConstraint=eastwest;newEdgeStyle={&quot;curved&quot;:0,&quot;rounded&quot;:0};" parent="qvjyN7jZhLFj0nZozjp7-2" vertex="1">
                    <mxGeometry x="50" y="110" width="10" height="40" as="geometry"/>
                </mxCell>
                <mxCell id="qvjyN7jZhLFj0nZozjp7-8" value="find loyalty by ID" style="html=1;align=left;spacingLeft=2;endArrow=block;rounded=0;edgeStyle=orthogonalEdgeStyle;curved=0;rounded=0;" parent="qvjyN7jZhLFj0nZozjp7-2" target="qvjyN7jZhLFj0nZozjp7-7" edge="1">
                    <mxGeometry relative="1" as="geometry">
                        <mxPoint x="55" y="90" as="sourcePoint"/>
                        <Array as="points">
                            <mxPoint x="85" y="120"/>
                        </Array>
                    </mxGeometry>
                </mxCell>
                <mxCell id="qvjyN7jZhLFj0nZozjp7-5" value="return" style="html=1;verticalAlign=bottom;endArrow=open;dashed=1;endSize=8;curved=0;rounded=0;exitX=0;exitY=1;exitDx=0;exitDy=-5;" parent="1" source="qvjyN7jZhLFj0nZozjp7-3" target="qvjyN7jZhLFj0nZozjp7-1" edge="1">
                    <mxGeometry relative="1" as="geometry">
                        <mxPoint x="115" y="155" as="targetPoint"/>
                    </mxGeometry>
                </mxCell>
                <mxCell id="qvjyN7jZhLFj0nZozjp7-4" value="dispatch" style="html=1;verticalAlign=bottom;endArrow=block;curved=0;rounded=0;entryX=0;entryY=0;entryDx=0;entryDy=5;" parent="1" source="qvjyN7jZhLFj0nZozjp7-1" target="qvjyN7jZhLFj0nZozjp7-3" edge="1">
                    <mxGeometry relative="1" as="geometry">
                        <mxPoint x="115" y="85" as="sourcePoint"/>
                    </mxGeometry>
                </mxCell>
            </root>
        </mxGraphModel>
    </diagram>
</mxfile>